<?xml version="1.0" encoding="UTF-8" standalone="no"?>
<!DOCTYPE svg PUBLIC "-//W3C//DTD SVG 1.1//EN" "http://www.w3.org/Graphics/SVG/1.1/DTD/svg11.dtd">
<svg xmlns="http://www.w3.org/2000/svg" version="1.1" viewBox="0.00 0.00 500.00 500.00">
<g stroke-width="2.00" fill="none" stroke-linecap="butt">
<path stroke="#d67d3d" vector-effect="non-scaling-stroke" d="
  M 150.24 51.87
  Q 162.69 56.29 171.66 69.80"
/>
<path stroke="#d66b10" vector-effect="non-scaling-stroke" d="
  M 171.66 69.80
  Q 171.67 69.03 173.03 70.27"
/>
<path stroke="#645a38" vector-effect="non-scaling-stroke" d="
  M 173.03 70.27
  Q 172.61 70.49 172.87 71.00
  Q 174.97 75.13 175.56 78.22"
/>
<path stroke="#636640" vector-effect="non-scaling-stroke" d="
  M 175.56 78.22
  Q 174.20 84.36 169.29 86.82
  Q 165.78 88.58 164.38 89.48"
/>
<path stroke="#d67d3d" vector-effect="non-scaling-stroke" d="
  M 164.38 89.48
  Q 158.35 90.07 154.75 89.45
  Q 147.88 88.26 138.39 83.43
  Q 137.65 83.06 137.68 83.89
  C 138.17 101.17 127.70 117.09 109.74 117.94
  A 0.58 0.57 70.6 0 0 109.31 118.85
  C 114.34 125.74 114.82 135.17 108.44 141.30
  Q 105.41 144.21 100.94 144.33
  Q 100.17 144.35 100.37 143.61
  Q 101.12 140.75 103.14 138.85
  Q 103.72 138.30 103.78 137.50
  Q 104.39 129.48 100.27 123.39
  C 96.58 117.94 90.39 119.92 87.64 124.81
  C 83.02 133.00 81.94 147.50 91.41 153.52
  C 92.62 154.29 93.13 154.34 93.26 156.01
  Q 93.92 164.24 94.76 172.20"
/>
<path stroke="#d26f2e" vector-effect="non-scaling-stroke" d="
  M 94.76 172.20
  L 95.89 191.07"
/>
<path stroke="#f9a63e" vector-effect="non-scaling-stroke" d="
  M 442.18 50.01
  L 442.77 67.42
  A 1.07 1.06 -0.3 0 0 443.82 68.45
  L 458.95 68.70"
/>
<path stroke="#ca650f" vector-effect="non-scaling-stroke" d="
  M 458.98 323.95
  L 437.75 323.86"
/>
<path stroke="#b6751a" vector-effect="non-scaling-stroke" d="
  M 437.75 323.86
  L 437.29 320.53"
/>
<path stroke="#878f42" vector-effect="non-scaling-stroke" d="
  M 437.29 320.53
  L 437.00 78.47"
/>
<path stroke="#87833a" vector-effect="non-scaling-stroke" d="
  M 437.00 78.47
  L 436.95 71.00
  A 0.49 0.48 90.0 0 0 436.47 70.51
  L 173.03 70.27"
/>
<path stroke="#f9a63e" vector-effect="non-scaling-stroke" d="
  M 171.66 69.80
  Q 171.87 69.36 172.13 69.26
  Q 172.44 69.14 172.54 68.84
  Q 172.96 67.61 174.08 66.58
  Q 181.23 60.04 191.38 50.00"
/>
<path stroke="#839360" vector-effect="non-scaling-stroke" d="
  M 137.75 193.84
  L 137.83 203.24"
/>
<path stroke="#876341" vector-effect="non-scaling-stroke" d="
  M 137.83 203.24
  L 139.40 208.68"
/>
<path stroke="#a18965" vector-effect="non-scaling-stroke" d="
  M 139.40 208.68
  L 137.70 213.21"
/>
<path stroke="#9c5729" vector-effect="non-scaling-stroke" d="
  M 137.70 213.21
  Q 127.34 229.94 120.90 248.82"
/>
<path stroke="#f5aa5d" vector-effect="non-scaling-stroke" d="
  M 120.90 248.82
  Q 119.98 243.74 119.02 238.75
  Q 117.98 233.37 117.95 228.74
  Q 117.89 218.03 117.19 207.14
  A 2.12 2.10 -76.1 0 0 116.20 205.48
  Q 109.06 201.04 101.92 196.21
  Q 99.78 194.76 97.88 192.75
  Q 97.53 192.38 97.02 192.36
  Q 96.53 192.34 96.14 192.56"
/>
<path stroke="#157d6a" vector-effect="non-scaling-stroke" d="
  M 437.00 78.47
  Q 406.31 77.55 375.66 77.95
  C 367.78 78.06 359.53 77.77 351.15 77.83
  Q 308.11 78.13 252.41 77.84
  Q 243.69 77.80 232.25 77.92
  Q 207.46 78.18 181.49 77.96
  C 179.69 77.95 177.58 78.40 175.56 78.22"
/>
<path stroke="#43704b" vector-effect="non-scaling-stroke" d="
  M 437.29 320.53
  L 437.14 323.53
  Q 437.11 324.03 436.64 324.20
  L 435.06 324.74"
/>
<path stroke="#8ac4b9" vector-effect="non-scaling-stroke" d="
  M 435.06 324.74
  Q 435.42 321.27 433.90 317.77"
/>
<path stroke="#43704b" vector-effect="non-scaling-stroke" d="
  M 433.90 317.77
  Q 432.16 316.18 429.45 315.37"
/>
<path stroke="#87a06f" vector-effect="non-scaling-stroke" d="
  M 429.45 315.37
  Q 429.62 314.22 429.35 313.35
  Q 429.20 312.86 428.68 312.80
  Q 426.46 312.55 425.75 312.55
  Q 409.38 312.65 392.99 312.75
  Q 391.87 312.75 391.77 314.93"
/>
<path stroke="#43704b" vector-effect="non-scaling-stroke" d="
  M 391.77 314.93
  Q 391.43 316.83 389.25 316.66
  Q 385.14 316.35 384.75 320.60
  Q 384.57 322.62 382.54 322.61
  L 206.77 322.14"
/>
<path stroke="#797e3f" vector-effect="non-scaling-stroke" d="
  M 206.77 322.14
  L 171.61 322.27"
/>
<path stroke="#195a53" vector-effect="non-scaling-stroke" d="
  M 171.61 322.27
  L 172.52 274.83"
/>
<path stroke="#0f4d47" vector-effect="non-scaling-stroke" d="
  M 172.52 274.83
  Q 181.55 280.41 190.26 286.47
  Q 190.57 286.69 190.86 286.67
  Q 191.16 286.65 191.54 286.54"
/>
<path stroke="#87a06f" vector-effect="non-scaling-stroke" d="
  M 191.54 286.54
  Q 191.29 286.61 191.62 286.81
  Q 199.75 291.79 207.30 295.02
  Q 225.59 302.85 237.68 287.60
  Q 243.10 280.76 247.01 274.38
  Q 256.39 259.08 265.65 243.42
  C 266.50 241.98 267.66 240.54 269.39 240.16
  C 275.96 238.68 283.52 236.17 285.82 229.19
  C 286.44 227.31 286.28 225.47 286.29 223.54
  A 1.33 1.33 0.0 0 1 286.78 222.53
  C 288.51 221.16 290.50 220.38 291.76 218.44
  Q 293.37 215.96 294.09 213.05"
/>
<path stroke="#3e523d" vector-effect="non-scaling-stroke" d="
  M 294.09 213.05
  Q 294.34 212.23 293.88 211.58"
/>
<path stroke="#8ac4b9" vector-effect="non-scaling-stroke" d="
  M 293.88 211.58
  L 317.20 190.95
  A 1.01 1.01 0.0 0 0 317.53 190.18
  Q 317.51 189.41 316.97 189.11
  Q 316.44 188.81 315.94 189.16
  Q 304.35 197.07 291.32 207.31
  Q 290.57 207.90 290.35 208.79
  Q 290.23 209.26 289.88 209.61
  Q 288.45 211.06 287.21 210.93"
/>
<path stroke="#87a06f" vector-effect="non-scaling-stroke" d="
  M 287.21 210.93
  Q 282.00 208.39 275.17 209.36
  Q 271.90 209.83 269.38 210.77
  Q 266.29 211.91 264.47 215.04
  C 262.11 219.11 260.10 223.97 256.48 227.14
  Q 238.03 243.31 219.72 257.52
  A 1.09 1.08 -44.3 0 1 218.36 257.51
  L 213.98 253.94"
/>
<path stroke="#0f4d47" vector-effect="non-scaling-stroke" d="
  M 213.98 253.94
  L 169.02 220.49"
/>
<path stroke="#195a53" vector-effect="non-scaling-stroke" d="
  M 169.02 220.49
  Q 167.84 219.25 167.78 218.10"
/>
<path stroke="#878f42" vector-effect="non-scaling-stroke" d="
  M 167.78 218.10
  L 167.95 187.78"
/>
<path stroke="#87a06f" vector-effect="non-scaling-stroke" d="
  M 167.95 187.78
  Q 171.22 182.15 170.45 175.76
  Q 169.60 168.74 169.70 166.23
  Q 169.84 162.46 171.12 154.63
  Q 171.21 154.08 171.77 154.05
  C 176.43 153.82 185.72 151.22 180.66 144.26
  Q 175.98 137.83 171.97 131.46
  Q 169.45 127.46 168.94 123.00
  Q 166.75 103.93 164.38 89.48"
/>
<path stroke="#f9a63e" vector-effect="non-scaling-stroke" d="
  M 167.95 187.78
  Q 162.82 192.27 155.79 193.43
  Q 152.42 193.98 148.88 194.53"
/>
<path stroke="#87a06f" vector-effect="non-scaling-stroke" d="
  M 148.88 194.53
  L 137.75 193.84"
/>
<path stroke="#f5aa5d" vector-effect="non-scaling-stroke" d="
  M 137.75 193.84
  Q 135.91 193.17 133.60 192.59
  Q 130.96 191.94 129.44 191.39
  Q 115.81 186.49 106.81 180.20
  Q 98.23 174.19 94.76 172.20"
/>
<path stroke="#b9ab91" vector-effect="non-scaling-stroke" d="
  M 433.90 317.77
  L 387.85 317.81
  Q 386.66 317.81 386.60 319.00
  L 386.36 323.79
  A 1.21 1.20 -88.9 0 0 387.57 325.06
  L 435.06 324.74"
/>
<path stroke="#874618" vector-effect="non-scaling-stroke" d="
  M 437.75 323.86
  Q 437.81 326.81 434.75 327.12
  Q 430.74 327.51 426.67 327.36
  Q 409.03 326.68 391.38 327.46
  Q 390.22 327.51 389.15 327.30
  C 387.03 326.89 383.86 327.84 384.13 324.32
  A 0.94 0.94 0.0 0 0 383.19 323.31
  L 207.83 323.18"
/>
<path stroke="#a86418" vector-effect="non-scaling-stroke" d="
  M 207.83 323.18
  L 206.77 322.14"
/>
<path stroke="#82280b" vector-effect="non-scaling-stroke" d="
  M 454.80 340.00
  Q 415.07 339.17 374.75 339.75
  Q 364.32 339.89 354.74 339.82
  Q 318.37 339.53 282.00 339.87
  Q 271.67 339.97 261.99 339.92
  Q 234.14 339.78 206.28 339.85"
/>
<path stroke="#4c4440" vector-effect="non-scaling-stroke" d="
  M 120.12 290.42
  C 120.67 288.60 121.37 286.83 121.82 284.98
  Q 130.46 249.31 138.56 213.59
  Q 138.65 213.19 138.24 213.14
  Q 138.02 213.11 137.70 213.21"
/>
<path stroke="#a06438" vector-effect="non-scaling-stroke" d="
  M 120.90 248.82
  Q 120.63 249.89 120.21 250.29
  Q 119.82 250.66 119.62 250.16
  Q 112.57 232.74 100.98 218.37
  Q 99.59 216.65 98.20 214.56
  Q 96.98 212.74 95.46 210.73"
/>
<path stroke="#a59773" vector-effect="non-scaling-stroke" d="
  M 95.46 210.73
  L 94.39 204.64"
/>
<path stroke="#141e27" vector-effect="non-scaling-stroke" d="
  M 169.02 220.49
  Q 168.50 220.29 168.10 220.63
  Q 167.75 220.93 167.81 221.38
  Q 170.48 240.72 172.11 260.03
  Q 172.68 266.77 172.32 272.92
  Q 172.29 273.42 172.44 273.89
  Q 172.61 274.38 172.52 274.83"
/>
<path stroke="#7e4e20" vector-effect="non-scaling-stroke" d="
  M 171.61 322.27
  L 171.65 340.05"
/>
<path stroke="#43231e" vector-effect="non-scaling-stroke" d="
  M 171.65 340.05
  L 171.35 350.84"
/>
<path stroke="#6a3228" vector-effect="non-scaling-stroke" d="
  M 171.35 350.84
  L 171.89 365.12"
/>
<path stroke="#8b714f" vector-effect="non-scaling-stroke" d="
  M 55.16 435.89
  L 55.70 426.12
  Q 55.74 425.45 55.09 425.28
  L 48.68 423.56
  A 1.29 1.28 12.3 0 1 47.74 422.10
  Q 51.32 401.48 54.92 380.92
  C 55.38 378.31 55.22 375.87 55.28 373.24"
/>
<path stroke="#141e27" vector-effect="non-scaling-stroke" d="
  M 56.32 374.52
  Q 57.69 373.65 59.39 374.13
  Q 61.73 374.80 62.19 374.85
  Q 77.77 376.41 92.53 378.40
  Q 93.49 378.53 93.82 377.62
  Q 94.47 375.78 93.65 374.66
  Q 93.19 374.04 91.22 373.82
  Q 74.34 371.92 57.17 370.50"
/>
<path stroke="#141e27" vector-effect="non-scaling-stroke" d="
  M 57.43 308.03
  Q 58.79 304.48 58.60 300.75
  Q 56.46 259.92 54.77 219.12"
/>
<path stroke="#375057" vector-effect="non-scaling-stroke" d="
  M 91.76 206.89
  L 83.96 233.92
  A 2.99 2.98 -60.1 0 0 84.75 236.88
  L 90.58 242.50
  A 0.92 0.92 0.0 0 1 90.65 243.73
  L 85.52 250.11
  A 0.84 0.83 48.1 0 0 85.47 251.09
  Q 88.31 255.37 91.34 259.17
  Q 105.54 276.99 118.48 294.44
  Q 118.82 294.89 119.25 295.29
  Q 119.52 295.55 119.43 295.19
  L 118.44 291.47"
/>
<path stroke="#321e1c" vector-effect="non-scaling-stroke" d="
  M 118.44 291.47
  Q 119.50 292.00 120.12 290.42"
/>
<path stroke="#375057" vector-effect="non-scaling-stroke" d="
  M 120.12 290.42
  Q 120.10 290.79 120.14 290.83
  A 0.39 0.38 -51.2 0 0 120.73 290.76
  Q 134.22 270.78 146.89 252.12
  Q 147.31 251.50 146.86 250.90
  L 141.68 244.00
  A 0.90 0.90 0.0 0 1 141.81 242.78
  L 148.18 237.13
  Q 149.07 236.35 148.68 235.23
  L 139.40 208.68"
/>
<path stroke="#195a53" vector-effect="non-scaling-stroke" d="
  M 148.09 207.81
  L 137.83 203.24"
/>
<path stroke="#8b5f22" vector-effect="non-scaling-stroke" d="
  M 167.78 218.10
  Q 166.59 216.41 165.01 215.69
  Q 156.51 211.82 148.09 207.81"
/>
<path stroke="#878f42" vector-effect="non-scaling-stroke" d="
  M 148.09 207.81
  Q 148.81 206.75 148.79 206.25
  Q 148.52 200.40 148.88 194.53"
/>
<path stroke="#b48d84" vector-effect="non-scaling-stroke" d="
  M 293.88 211.58
  L 292.38 210.67
  Q 291.96 210.42 291.57 210.70
  L 288.34 213.10"
/>
<path stroke="#fcdbb5" vector-effect="non-scaling-stroke" d="
  M 288.34 213.10
  Q 287.16 212.78 287.21 210.93"
/>
<path stroke="#bd540d" vector-effect="non-scaling-stroke" d="
  M 207.83 323.18
  Q 207.17 323.23 206.82 323.57
  Q 206.55 323.84 206.55 324.50
  Q 206.58 331.64 206.60 338.76
  Q 206.61 339.16 206.28 339.85"
/>
<path stroke="#a3470a" vector-effect="non-scaling-stroke" d="
  M 206.28 339.85
  L 171.65 340.05"
/>
<path stroke="#b68747" vector-effect="non-scaling-stroke" d="
  M 429.45 315.37
  L 391.77 314.93"
/>
<path stroke="#b1693a" vector-effect="non-scaling-stroke" d="
  M 288.34 213.10
  Q 287.83 215.55 289.98 215.31
  Q 290.49 215.26 290.90 214.93
  L 293.66 212.70
  Q 293.84 212.56 293.94 212.76
  Q 294.00 212.89 294.09 213.05"
/>
<path stroke="#826443" vector-effect="non-scaling-stroke" d="
  M 191.54 286.54
  L 213.98 253.94"
/>
<path stroke="#902a12" vector-effect="non-scaling-stroke" d="
  M 454.35 350.74
  L 171.35 350.84"
/>
<path stroke="#4c4440" vector-effect="non-scaling-stroke" d="
  M 95.46 210.73
  Q 95.54 213.81 96.60 216.72
  Q 98.09 220.81 98.11 220.87
  Q 107.68 252.62 116.77 284.51
  C 117.35 286.55 117.69 289.18 118.44 291.47"
/>
<path stroke="#7e5735" vector-effect="non-scaling-stroke" d="
  M 55.51 307.28
  Q 55.44 306.62 54.77 306.85
  Q 44.45 310.36 33.50 309.37
  Q 28.37 308.91 22.04 308.58"
/>
<path stroke="#826443" vector-effect="non-scaling-stroke" d="
  M 22.04 308.58
  Q 21.21 307.89 18.27 307.31"
/>
<path stroke="#f5aa5d" vector-effect="non-scaling-stroke" d="
  M 53.05 326.08
  Q 44.70 324.67 37.22 319.54
  Q 27.35 312.79 22.04 308.58"
/>
<path stroke="#8ac4b9" vector-effect="non-scaling-stroke" d="
  M 399.47 128.25
  A 0.45 0.45 0.0 0 0 399.92 127.80
  L 400.04 108.90
  A 0.45 0.45 0.0 0 0 399.59 108.45
  L 210.47 108.52
  A 0.45 0.45 0.0 0 0 210.02 108.97
  L 210.03 127.80
  A 0.45 0.45 0.0 0 0 210.48 128.25
  L 399.47 128.25"
/>
<path stroke="#8ac4b9" vector-effect="non-scaling-stroke" d="
  M 382.49 155.89
  A 0.63 0.63 0.0 0 0 381.86 155.26
  L 210.72 155.26
  A 0.63 0.63 0.0 0 0 210.09 155.89
  L 210.09 174.55
  A 0.63 0.63 0.0 0 0 210.72 175.18
  L 381.86 175.18
  A 0.63 0.63 0.0 0 0 382.49 174.55
  L 382.49 155.89"
/>
<path stroke="#8ac4b9" vector-effect="non-scaling-stroke" d="
  M 223.5361 223.0415
  A 11.94 11.66 102.4 0 0 237.4880 213.8838
  A 11.94 11.66 102.4 0 0 228.6639 199.7185
  A 11.94 11.66 102.4 0 0 214.7120 208.8762
  A 11.94 11.66 102.4 0 0 223.5361 223.0415"
/>
<path stroke="#8ac4b9" vector-effect="non-scaling-stroke" d="
  M 326.40 261.33
  L 393.26 261.45
  A 0.98 0.98 0.0 0 0 394.24 260.47
  L 394.33 208.81
  A 5.78 5.56 0.1 0 0 388.56 203.24
  L 331.30 203.14
  A 5.78 5.56 0.1 0 0 325.51 208.69
  L 325.42 260.35
  A 0.98 0.98 0.0 0 0 326.40 261.33"
/>
<path stroke="#d67d3d" vector-effect="non-scaling-stroke" d="
  M 151.08 110.79
  A 9.27 9.27 0.0 0 0 142.87 110.16
  Q 137.82 112.20 133.03 115.67
  A 0.69 0.68 -48.3 0 0 133.09 116.82
  C 139.65 120.58 148.74 118.72 156.05 117.28
  Q 160.53 116.41 156.61 114.07
  L 151.08 110.79"
/>
<path stroke="#f5aa5d" vector-effect="non-scaling-stroke" d="
  M 95.01 144.89
  A 0.53 0.53 0.0 0 0 95.69 145.04
  Q 96.15 144.80 96.17 144.27
  Q 96.41 138.38 96.34 133.08
  Q 96.31 131.03 94.98 129.16
  A 1.67 1.65 -24.0 0 0 93.25 128.51
  C 87.94 129.73 90.47 137.60 92.17 140.51
  Q 93.46 142.73 95.01 144.89"
/>
<path stroke="#8ac4b9" vector-effect="non-scaling-stroke" d="
  M 224.0809 220.3948
  A 9.28 8.83 103.2 0 0 234.7967 213.3763
  A 9.28 8.83 103.2 0 0 228.3191 202.3252
  A 9.28 8.83 103.2 0 0 217.6033 209.3437
  A 9.28 8.83 103.2 0 0 224.0809 220.3948"
/>
<path stroke="#8ac4b9" vector-effect="non-scaling-stroke" d="
  M 330.93 206.03
  C 328.28 206.02 327.78 209.26 329.54 210.77
  Q 344.62 223.74 360.19 238.04
  A 1.10 1.10 0.0 0 0 361.67 238.04
  Q 376.62 224.39 390.04 212.33
  Q 392.12 210.46 391.56 207.40
  Q 391.38 206.43 390.41 206.25
  Q 389.27 206.04 388.09 206.05
  Q 360.06 206.07 330.93 206.03"
/>
<path stroke="#8ac4b9" vector-effect="non-scaling-stroke" d="
  M 336.01 241.57
  A 0.92 0.92 0.0 0 1 336.93 241.86
  Q 340.00 245.32 342.38 249.16
  A 0.51 0.50 47.9 0 0 343.21 249.21
  L 353.53 236.05
  A 0.55 0.54 39.8 0 0 353.46 235.31
  L 329.05 213.67
  A 0.43 0.43 0.0 0 0 328.33 213.99
  L 328.26 258.21
  Q 328.26 258.66 328.71 258.66
  L 391.32 258.64
  A 0.27 0.27 0.0 0 0 391.59 258.36
  Q 391.48 238.59 391.66 217.19
  Q 391.67 216.31 391.79 215.35
  Q 391.99 213.81 390.83 214.86
  L 368.83 234.81
  A 0.78 0.76 53.7 0 0 368.69 235.78
  Q 369.32 236.81 370.16 237.73
  Q 378.65 247.11 385.53 255.74
  A 0.67 0.66 51.5 0 1 385.43 256.67
  Q 385.05 256.97 384.59 256.86
  Q 383.26 256.53 382.42 255.55
  Q 375.10 247.09 366.53 237.72
  A 0.58 0.58 0.0 0 0 365.73 237.66
  L 361.81 240.87
  A 1.24 1.23 -46.7 0 1 360.30 240.92
  L 356.19 237.97
  Q 355.56 237.51 355.09 238.12
  L 343.20 253.16
  Q 342.65 253.85 342.15 253.13
  L 335.32 243.20
  A 1.04 1.03 51.7 0 1 335.47 241.86
  Q 335.70 241.64 336.01 241.57"
/>
<path stroke="#141e27" vector-effect="non-scaling-stroke" d="
  M 171.9981 373.2923
  A 1.32 1.32 0.0 0 0 170.5151 372.1585
  L 142.8602 375.8484
  A 1.32 1.32 0.0 0 0 141.7264 377.3314
  L 141.7819 377.7477
  A 1.32 1.32 0.0 0 0 143.2649 378.8815
  L 170.9198 375.1916
  A 1.32 1.32 0.0 0 0 172.0536 373.7086
  L 171.9981 373.2923"
/>
</g>
<path fill="#b2420e" d="
  M 150.24 51.87
  Q 162.69 56.29 171.66 69.80
  Q 171.67 69.03 173.03 70.27
  Q 172.61 70.49 172.87 71.00
  Q 174.97 75.13 175.56 78.22
  Q 174.20 84.36 169.29 86.82
  Q 165.78 88.58 164.38 89.48
  Q 158.35 90.07 154.75 89.45
  Q 147.88 88.26 138.39 83.43
  Q 137.65 83.06 137.68 83.89
  C 138.17 101.17 127.70 117.09 109.74 117.94
  A 0.58 0.57 70.6 0 0 109.31 118.85
  C 114.34 125.74 114.82 135.17 108.44 141.30
  Q 105.41 144.21 100.94 144.33
  Q 100.17 144.35 100.37 143.61
  Q 101.12 140.75 103.14 138.85
  Q 103.72 138.30 103.78 137.50
  Q 104.39 129.48 100.27 123.39
  C 96.58 117.94 90.39 119.92 87.64 124.81
  C 83.02 133.00 81.94 147.50 91.41 153.52
  C 92.62 154.29 93.13 154.34 93.26 156.01
  Q 93.92 164.24 94.76 172.20
  L 95.89 191.07
  Q 76.91 191.56 58.25 192.53
  C 55.59 192.67 51.39 192.23 48.96 191.25
  C 36.60 186.31 35.30 174.59 38.07 163.07
  Q 40.64 152.40 42.01 142.17
  Q 43.12 133.87 43.04 126.02
  Q 42.93 115.94 44.34 105.00
  C 46.19 90.67 53.41 76.43 62.93 66.98
  Q 68.55 61.39 77.85 58.15
  C 83.78 56.08 88.42 51.80 94.22 49.39
  Q 97.10 48.20 99.94 47.53
  Q 110.39 45.03 120.25 46.24
  Q 132.88 47.79 150.24 51.87
  Z"
/>
<path fill="#f99411" d="
  M 442.18 50.01
  L 442.77 67.42
  A 1.07 1.06 -0.3 0 0 443.82 68.45
  L 458.95 68.70
  L 458.98 323.95
  L 437.75 323.86
  L 437.29 320.53
  L 437.00 78.47
  L 436.95 71.00
  A 0.49 0.48 90.0 0 0 436.47 70.51
  L 173.03 70.27
  Q 171.67 69.03 171.66 69.80
  Q 171.87 69.36 172.13 69.26
  Q 172.44 69.14 172.54 68.84
  Q 172.96 67.61 174.08 66.58
  Q 181.23 60.04 191.38 50.00
  L 442.18 50.01
  Z"
/>
<path fill="#f9b76b" d="
  M 191.38 50.00
  Q 181.23 60.04 174.08 66.58
  Q 172.96 67.61 172.54 68.84
  Q 172.44 69.14 172.13 69.26
  Q 171.87 69.36 171.66 69.80
  Q 162.69 56.29 150.24 51.87
  Q 152.34 50.32 156.25 50.26
  Q 173.59 50.01 191.38 50.00
  Z"
/>
<path fill="#f9b76b" d="
  M 442.18 50.01
  L 458.17 50.03
  A 0.72 0.72 0.0 0 1 458.89 50.75
  L 458.95 68.70
  L 443.82 68.45
  A 1.07 1.06 -0.3 0 1 442.77 67.42
  L 442.18 50.01
  Z"
/>
<path fill="#157162" d="
  M 173.03 70.27
  L 436.47 70.51
  A 0.49 0.48 -90.0 0 1 436.95 71.00
  L 437.00 78.47
  Q 406.31 77.55 375.66 77.95
  C 367.78 78.06 359.53 77.77 351.15 77.83
  Q 308.11 78.13 252.41 77.84
  Q 243.69 77.80 232.25 77.92
  Q 207.46 78.18 181.49 77.96
  C 179.69 77.95 177.58 78.40 175.56 78.22
  Q 174.97 75.13 172.87 71.00
  Q 172.61 70.49 173.03 70.27
  Z"
/>
<path fill="#148972" d="
  M 437.00 78.47
  L 437.29 320.53
  L 437.14 323.53
  Q 437.11 324.03 436.64 324.20
  L 435.06 324.74
  Q 435.42 321.27 433.90 317.77
  Q 432.16 316.18 429.45 315.37
  Q 429.62 314.22 429.35 313.35
  Q 429.20 312.86 428.68 312.80
  Q 426.46 312.55 425.75 312.55
  Q 409.38 312.65 392.99 312.75
  Q 391.87 312.75 391.77 314.93
  Q 391.43 316.83 389.25 316.66
  Q 385.14 316.35 384.75 320.60
  Q 384.57 322.62 382.54 322.61
  L 206.77 322.14
  L 171.61 322.27
  L 172.52 274.83
  Q 181.55 280.41 190.26 286.47
  Q 190.57 286.69 190.86 286.67
  Q 191.16 286.65 191.54 286.54
  Q 191.29 286.61 191.62 286.81
  Q 199.75 291.79 207.30 295.02
  Q 225.59 302.85 237.68 287.60
  Q 243.10 280.76 247.01 274.38
  Q 256.39 259.08 265.65 243.42
  C 266.50 241.98 267.66 240.54 269.39 240.16
  C 275.96 238.68 283.52 236.17 285.82 229.19
  C 286.44 227.31 286.28 225.47 286.29 223.54
  A 1.33 1.33 0.0 0 1 286.78 222.53
  C 288.51 221.16 290.50 220.38 291.76 218.44
  Q 293.37 215.96 294.09 213.05
  Q 294.34 212.23 293.88 211.58
  L 317.20 190.95
  A 1.01 1.01 0.0 0 0 317.53 190.18
  Q 317.51 189.41 316.97 189.11
  Q 316.44 188.81 315.94 189.16
  Q 304.35 197.07 291.32 207.31
  Q 290.57 207.90 290.35 208.79
  Q 290.23 209.26 289.88 209.61
  Q 288.45 211.06 287.21 210.93
  Q 282.00 208.39 275.17 209.36
  Q 271.90 209.83 269.38 210.77
  Q 266.29 211.91 264.47 215.04
  C 262.11 219.11 260.10 223.97 256.48 227.14
  Q 238.03 243.31 219.72 257.52
  A 1.09 1.08 -44.3 0 1 218.36 257.51
  L 213.98 253.94
  L 169.02 220.49
  Q 167.84 219.25 167.78 218.10
  L 167.95 187.78
  Q 171.22 182.15 170.45 175.76
  Q 169.60 168.74 169.70 166.23
  Q 169.84 162.46 171.12 154.63
  Q 171.21 154.08 171.77 154.05
  C 176.43 153.82 185.72 151.22 180.66 144.26
  Q 175.98 137.83 171.97 131.46
  Q 169.45 127.46 168.94 123.00
  Q 166.75 103.93 164.38 89.48
  Q 165.78 88.58 169.29 86.82
  Q 174.20 84.36 175.56 78.22
  C 177.58 78.40 179.69 77.95 181.49 77.96
  Q 207.46 78.18 232.25 77.92
  Q 243.69 77.80 252.41 77.84
  Q 308.11 78.13 351.15 77.83
  C 359.53 77.77 367.78 78.06 375.66 77.95
  Q 406.31 77.55 437.00 78.47
  Z
  M 399.47 128.25
  A 0.45 0.45 0.0 0 0 399.92 127.80
  L 400.04 108.90
  A 0.45 0.45 0.0 0 0 399.59 108.45
  L 210.47 108.52
  A 0.45 0.45 0.0 0 0 210.02 108.97
  L 210.03 127.80
  A 0.45 0.45 0.0 0 0 210.48 128.25
  L 399.47 128.25
  Z
  M 382.49 155.89
  A 0.63 0.63 0.0 0 0 381.86 155.26
  L 210.72 155.26
  A 0.63 0.63 0.0 0 0 210.09 155.89
  L 210.09 174.55
  A 0.63 0.63 0.0 0 0 210.72 175.18
  L 381.86 175.18
  A 0.63 0.63 0.0 0 0 382.49 174.55
  L 382.49 155.89
  Z
  M 223.5361 223.0415
  A 11.94 11.66 102.4 0 0 237.4880 213.8838
  A 11.94 11.66 102.4 0 0 228.6639 199.7185
  A 11.94 11.66 102.4 0 0 214.7120 208.8762
  A 11.94 11.66 102.4 0 0 223.5361 223.0415
  Z
  M 326.40 261.33
  L 393.26 261.45
  A 0.98 0.98 0.0 0 0 394.24 260.47
  L 394.33 208.81
  A 5.78 5.56 0.1 0 0 388.56 203.24
  L 331.30 203.14
  A 5.78 5.56 0.1 0 0 325.51 208.69
  L 325.42 260.35
  A 0.98 0.98 0.0 0 0 326.40 261.33
  Z"
/>
<path fill="#f9b76b" d="
  M 164.38 89.48
  Q 166.75 103.93 168.94 123.00
  Q 169.45 127.46 171.97 131.46
  Q 175.98 137.83 180.66 144.26
  C 185.72 151.22 176.43 153.82 171.77 154.05
  Q 171.21 154.08 171.12 154.63
  Q 169.84 162.46 169.70 166.23
  Q 169.60 168.74 170.45 175.76
  Q 171.22 182.15 167.95 187.78
  Q 162.82 192.27 155.79 193.43
  Q 152.42 193.98 148.88 194.53
  L 137.75 193.84
  Q 135.91 193.17 133.60 192.59
  Q 130.96 191.94 129.44 191.39
  Q 115.81 186.49 106.81 180.20
  Q 98.23 174.19 94.76 172.20
  Q 93.92 164.24 93.26 156.01
  C 93.13 154.34 92.62 154.29 91.41 153.52
  C 81.94 147.50 83.02 133.00 87.64 124.81
  C 90.39 119.92 96.58 117.94 100.27 123.39
  Q 104.39 129.48 103.78 137.50
  Q 103.72 138.30 103.14 138.85
  Q 101.12 140.75 100.37 143.61
  Q 100.17 144.35 100.94 144.33
  Q 105.41 144.21 108.44 141.30
  C 114.82 135.17 114.34 125.74 109.31 118.85
  A 0.58 0.57 70.6 0 1 109.74 117.94
  C 127.70 117.09 138.17 101.17 137.68 83.89
  Q 137.65 83.06 138.39 83.43
  Q 147.88 88.26 154.75 89.45
  Q 158.35 90.07 164.38 89.48
  Z
  M 151.08 110.79
  A 9.27 9.27 0.0 0 0 142.87 110.16
  Q 137.82 112.20 133.03 115.67
  A 0.69 0.68 -48.3 0 0 133.09 116.82
  C 139.65 120.58 148.74 118.72 156.05 117.28
  Q 160.53 116.41 156.61 114.07
  L 151.08 110.79
  Z
  M 95.01 144.89
  A 0.53 0.53 0.0 0 0 95.69 145.04
  Q 96.15 144.80 96.17 144.27
  Q 96.41 138.38 96.34 133.08
  Q 96.31 131.03 94.98 129.16
  A 1.67 1.65 -24.0 0 0 93.25 128.51
  C 87.94 129.73 90.47 137.60 92.17 140.51
  Q 93.46 142.73 95.01 144.89
  Z"
/>
<path fill="#ffffff" d="
  M 399.47 128.25
  L 210.48 128.25
  A 0.45 0.45 0.0 0 1 210.03 127.80
  L 210.02 108.97
  A 0.45 0.45 0.0 0 1 210.47 108.52
  L 399.59 108.45
  A 0.45 0.45 0.0 0 1 400.04 108.90
  L 399.92 127.80
  A 0.45 0.45 0.0 0 1 399.47 128.25
  Z"
/>
<path fill="#b2420e" d="
  M 151.08 110.79
  L 156.61 114.07
  Q 160.53 116.41 156.05 117.28
  C 148.74 118.72 139.65 120.58 133.09 116.82
  A 0.69 0.68 -48.3 0 1 133.03 115.67
  Q 137.82 112.20 142.87 110.16
  A 9.27 9.27 0.0 0 1 151.08 110.79
  Z"
/>
<path fill="#f19c4e" d="
  M 95.01 144.89
  Q 93.46 142.73 92.17 140.51
  C 90.47 137.60 87.94 129.73 93.25 128.51
  A 1.67 1.65 -24.0 0 1 94.98 129.16
  Q 96.31 131.03 96.34 133.08
  Q 96.41 138.38 96.17 144.27
  Q 96.15 144.80 95.69 145.04
  A 0.53 0.53 0.0 0 1 95.01 144.89
  Z"
/>
<rect fill="#ffffff" x="210.09" y="155.26" width="172.40" height="19.92" rx="0.63"/>
<path fill="#f19c4e" d="
  M 94.76 172.20
  Q 98.23 174.19 106.81 180.20
  Q 115.81 186.49 129.44 191.39
  Q 130.96 191.94 133.60 192.59
  Q 135.91 193.17 137.75 193.84
  L 137.83 203.24
  L 139.40 208.68
  L 137.70 213.21
  Q 127.34 229.94 120.90 248.82
  Q 119.98 243.74 119.02 238.75
  Q 117.98 233.37 117.95 228.74
  Q 117.89 218.03 117.19 207.14
  A 2.12 2.10 -76.1 0 0 116.20 205.48
  Q 109.06 201.04 101.92 196.21
  Q 99.78 194.76 97.88 192.75
  Q 97.53 192.38 97.02 192.36
  Q 96.53 192.34 96.14 192.56
  L 95.89 191.07
  L 94.76 172.20
  Z"
/>
<path fill="#f99411" d="
  M 167.95 187.78
  L 167.78 218.10
  Q 166.59 216.41 165.01 215.69
  Q 156.51 211.82 148.09 207.81
  Q 148.81 206.75 148.79 206.25
  Q 148.52 200.40 148.88 194.53
  Q 152.42 193.98 155.79 193.43
  Q 162.82 192.27 167.95 187.78
  Z"
/>
<path fill="#ffffff" d="
  M 293.88 211.58
  L 292.38 210.67
  Q 291.96 210.42 291.57 210.70
  L 288.34 213.10
  Q 287.16 212.78 287.21 210.93
  Q 288.45 211.06 289.88 209.61
  Q 290.23 209.26 290.35 208.79
  Q 290.57 207.90 291.32 207.31
  Q 304.35 197.07 315.94 189.16
  Q 316.44 188.81 316.97 189.11
  Q 317.51 189.41 317.53 190.18
  A 1.01 1.01 0.0 0 1 317.20 190.95
  L 293.88 211.58
  Z"
/>
<path fill="#f9b76b" d="
  M 96.14 192.56
  Q 96.53 192.34 97.02 192.36
  Q 97.53 192.38 97.88 192.75
  Q 99.78 194.76 101.92 196.21
  Q 109.06 201.04 116.20 205.48
  A 2.12 2.10 -76.1 0 1 117.19 207.14
  Q 117.89 218.03 117.95 228.74
  Q 117.98 233.37 119.02 238.75
  Q 119.98 243.74 120.90 248.82
  Q 120.63 249.89 120.21 250.29
  Q 119.82 250.66 119.62 250.16
  Q 112.57 232.74 100.98 218.37
  Q 99.59 216.65 98.20 214.56
  Q 96.98 212.74 95.46 210.73
  L 94.39 204.64
  Q 96.23 198.46 96.14 192.56
  Z"
/>
<path fill="#148972" d="
  M 137.75 193.84
  L 148.88 194.53
  Q 148.52 200.40 148.79 206.25
  Q 148.81 206.75 148.09 207.81
  L 137.83 203.24
  L 137.75 193.84
  Z"
/>
<path fill="#ffffff" d="
  M 223.5361 223.0415
  A 11.94 11.66 102.4 0 1 214.7120 208.8762
  A 11.94 11.66 102.4 0 1 228.6639 199.7185
  A 11.94 11.66 102.4 0 1 237.4880 213.8838
  A 11.94 11.66 102.4 0 1 223.5361 223.0415
  Z
  M 224.0809 220.3948
  A 9.28 8.83 103.2 0 0 234.7967 213.3763
  A 9.28 8.83 103.2 0 0 228.3191 202.3252
  A 9.28 8.83 103.2 0 0 217.6033 209.3437
  A 9.28 8.83 103.2 0 0 224.0809 220.3948
  Z"
/>
<ellipse fill="#148972" cx="0.00" cy="0.00" transform="translate(226.20,211.36) rotate(103.2)" rx="9.28" ry="8.83"/>
<path fill="#ffffff" d="
  M 326.40 261.33
  A 0.98 0.98 0.0 0 1 325.42 260.35
  L 325.51 208.69
  A 5.78 5.56 0.1 0 1 331.30 203.14
  L 388.56 203.24
  A 5.78 5.56 0.1 0 1 394.33 208.81
  L 394.24 260.47
  A 0.98 0.98 0.0 0 1 393.26 261.45
  L 326.40 261.33
  Z
  M 330.93 206.03
  C 328.28 206.02 327.78 209.26 329.54 210.77
  Q 344.62 223.74 360.19 238.04
  A 1.10 1.10 0.0 0 0 361.67 238.04
  Q 376.62 224.39 390.04 212.33
  Q 392.12 210.46 391.56 207.40
  Q 391.38 206.43 390.41 206.25
  Q 389.27 206.04 388.09 206.05
  Q 360.06 206.07 330.93 206.03
  Z
  M 336.01 241.57
  A 0.92 0.92 0.0 0 1 336.93 241.86
  Q 340.00 245.32 342.38 249.16
  A 0.51 0.50 47.9 0 0 343.21 249.21
  L 353.53 236.05
  A 0.55 0.54 39.8 0 0 353.46 235.31
  L 329.05 213.67
  A 0.43 0.43 0.0 0 0 328.33 213.99
  L 328.26 258.21
  Q 328.26 258.66 328.71 258.66
  L 391.32 258.64
  A 0.27 0.27 0.0 0 0 391.59 258.36
  Q 391.48 238.59 391.66 217.19
  Q 391.67 216.31 391.79 215.35
  Q 391.99 213.81 390.83 214.86
  L 368.83 234.81
  A 0.78 0.76 53.7 0 0 368.69 235.78
  Q 369.32 236.81 370.16 237.73
  Q 378.65 247.11 385.53 255.74
  A 0.67 0.66 51.5 0 1 385.43 256.67
  Q 385.05 256.97 384.59 256.86
  Q 383.26 256.53 382.42 255.55
  Q 375.10 247.09 366.53 237.72
  A 0.58 0.58 0.0 0 0 365.73 237.66
  L 361.81 240.87
  A 1.24 1.23 -46.7 0 1 360.30 240.92
  L 356.19 237.97
  Q 355.56 237.51 355.09 238.12
  L 343.20 253.16
  Q 342.65 253.85 342.15 253.13
  L 335.32 243.20
  A 1.04 1.03 51.7 0 1 335.47 241.86
  Q 335.70 241.64 336.01 241.57
  Z"
/>
<path fill="#1d2a33" d="
  M 137.83 203.24
  L 148.09 207.81
  Q 156.51 211.82 165.01 215.69
  Q 166.59 216.41 167.78 218.10
  Q 167.84 219.25 169.02 220.49
  Q 168.50 220.29 168.10 220.63
  Q 167.75 220.93 167.81 221.38
  Q 170.48 240.72 172.11 260.03
  Q 172.68 266.77 172.32 272.92
  Q 172.29 273.42 172.44 273.89
  Q 172.61 274.38 172.52 274.83
  L 171.61 322.27
  L 171.65 340.05
  L 171.35 350.84
  L 171.89 365.12
  Q 171.44 366.26 171.71 366.77
  Q 173.49 370.25 174.48 374.66
  Q 178.17 390.96 181.45 409.08
  Q 182.25 413.53 182.93 418.46
  Q 183.40 421.93 180.53 422.71
  Q 176.73 423.75 172.73 425.36
  A 3.70 3.69 -11.5 0 0 170.41 428.86
  L 170.84 451.47
  A 1.78 1.78 0.0 0 1 169.02 453.29
  Q 164.01 453.17 159.00 453.15
  Q 114.95 452.98 70.95 453.12
  Q 64.69 453.15 57.35 453.03
  A 1.68 1.68 0.0 0 1 55.69 451.41
  Q 55.46 444.97 56.28 438.50
  Q 56.52 436.60 55.16 435.89
  L 55.70 426.12
  Q 55.74 425.45 55.09 425.28
  L 48.68 423.56
  A 1.29 1.28 12.3 0 1 47.74 422.10
  Q 51.32 401.48 54.92 380.92
  C 55.38 378.31 55.22 375.87 55.28 373.24
  Q 55.70 374.95 56.32 374.52
  Q 57.69 373.65 59.39 374.13
  Q 61.73 374.80 62.19 374.85
  Q 77.77 376.41 92.53 378.40
  Q 93.49 378.53 93.82 377.62
  Q 94.47 375.78 93.65 374.66
  Q 93.19 374.04 91.22 373.82
  Q 74.34 371.92 57.17 370.50
  Q 57.87 366.37 57.92 364.25
  Q 58.80 327.70 58.13 314.79
  Q 58.05 313.22 57.43 308.03
  Q 58.79 304.48 58.60 300.75
  Q 56.46 259.92 54.77 219.12
  L 91.76 206.89
  L 83.96 233.92
  A 2.99 2.98 -60.1 0 0 84.75 236.88
  L 90.58 242.50
  A 0.92 0.92 0.0 0 1 90.65 243.73
  L 85.52 250.11
  A 0.84 0.83 48.1 0 0 85.47 251.09
  Q 88.31 255.37 91.34 259.17
  Q 105.54 276.99 118.48 294.44
  Q 118.82 294.89 119.25 295.29
  Q 119.52 295.55 119.43 295.19
  L 118.44 291.47
  Q 119.50 292.00 120.12 290.42
  Q 120.10 290.79 120.14 290.83
  A 0.39 0.38 -51.2 0 0 120.73 290.76
  Q 134.22 270.78 146.89 252.12
  Q 147.31 251.50 146.86 250.90
  L 141.68 244.00
  A 0.90 0.90 0.0 0 1 141.81 242.78
  L 148.18 237.13
  Q 149.07 236.35 148.68 235.23
  L 139.40 208.68
  L 137.83 203.24
  Z
  M 171.9981 373.2923
  A 1.32 1.32 0.0 0 0 170.5151 372.1585
  L 142.8602 375.8484
  A 1.32 1.32 0.0 0 0 141.7264 377.3314
  L 141.7819 377.7477
  A 1.32 1.32 0.0 0 0 143.2649 378.8815
  L 170.9198 375.1916
  A 1.32 1.32 0.0 0 0 172.0536 373.7086
  L 171.9981 373.2923
  Z"
/>
<path fill="#50767b" d="
  M 94.39 204.64
  L 95.46 210.73
  Q 95.54 213.81 96.60 216.72
  Q 98.09 220.81 98.11 220.87
  Q 107.68 252.62 116.77 284.51
  C 117.35 286.55 117.69 289.18 118.44 291.47
  L 119.43 295.19
  Q 119.52 295.55 119.25 295.29
  Q 118.82 294.89 118.48 294.44
  Q 105.54 276.99 91.34 259.17
  Q 88.31 255.37 85.47 251.09
  A 0.84 0.83 48.1 0 1 85.52 250.11
  L 90.65 243.73
  A 0.92 0.92 0.0 0 0 90.58 242.50
  L 84.75 236.88
  A 2.99 2.98 -60.1 0 1 83.96 233.92
  L 91.76 206.89
  L 94.39 204.64
  Z"
/>
<path fill="#148972" d="
  M 329.54 210.77
  C 327.78 209.26 328.28 206.02 330.93 206.03
  Q 360.06 206.07 388.09 206.05
  Q 389.27 206.04 390.41 206.25
  Q 391.38 206.43 391.56 207.40
  Q 392.12 210.46 390.04 212.33
  Q 376.62 224.39 361.67 238.04
  A 1.10 1.10 0.0 0 1 360.19 238.04
  Q 344.62 223.74 329.54 210.77
  Z"
/>
<path fill="#50767b" d="
  M 139.40 208.68
  L 148.68 235.23
  Q 149.07 236.35 148.18 237.13
  L 141.81 242.78
  A 0.90 0.90 0.0 0 0 141.68 244.00
  L 146.86 250.90
  Q 147.31 251.50 146.89 252.12
  Q 134.22 270.78 120.73 290.76
  A 0.39 0.38 -51.2 0 1 120.14 290.83
  Q 120.10 290.79 120.12 290.42
  C 120.67 288.60 121.37 286.83 121.82 284.98
  Q 130.46 249.31 138.56 213.59
  Q 138.65 213.19 138.24 213.14
  Q 138.02 213.11 137.70 213.21
  L 139.40 208.68
  Z"
/>
<path fill="#f9b76b" d="
  M 287.21 210.93
  Q 287.16 212.78 288.34 213.10
  Q 287.83 215.55 289.98 215.31
  Q 290.49 215.26 290.90 214.93
  L 293.66 212.70
  Q 293.84 212.56 293.94 212.76
  Q 294.00 212.89 294.09 213.05
  Q 293.37 215.96 291.76 218.44
  C 290.50 220.38 288.51 221.16 286.78 222.53
  A 1.33 1.33 0.0 0 0 286.29 223.54
  C 286.28 225.47 286.44 227.31 285.82 229.19
  C 283.52 236.17 275.96 238.68 269.39 240.16
  C 267.66 240.54 266.50 241.98 265.65 243.42
  Q 256.39 259.08 247.01 274.38
  Q 243.10 280.76 237.68 287.60
  Q 225.59 302.85 207.30 295.02
  Q 199.75 291.79 191.62 286.81
  Q 191.29 286.61 191.54 286.54
  L 213.98 253.94
  L 218.36 257.51
  A 1.09 1.08 -44.3 0 0 219.72 257.52
  Q 238.03 243.31 256.48 227.14
  C 260.10 223.97 262.11 219.11 264.47 215.04
  Q 266.29 211.91 269.38 210.77
  Q 271.90 209.83 275.17 209.36
  Q 282.00 208.39 287.21 210.93
  Z"
/>
<path fill="#681b08" d="
  M 293.88 211.58
  Q 294.34 212.23 294.09 213.05
  Q 294.00 212.89 293.94 212.76
  Q 293.84 212.56 293.66 212.70
  L 290.90 214.93
  Q 290.49 215.26 289.98 215.31
  Q 287.83 215.55 288.34 213.10
  L 291.57 210.70
  Q 291.96 210.42 292.38 210.67
  L 293.88 211.58
  Z"
/>
<path fill="#471104" d="
  M 95.46 210.73
  Q 96.98 212.74 98.20 214.56
  Q 99.59 216.65 100.98 218.37
  Q 112.57 232.74 119.62 250.16
  Q 119.82 250.66 120.21 250.29
  Q 120.63 249.89 120.90 248.82
  Q 127.34 229.94 137.70 213.21
  Q 138.02 213.11 138.24 213.14
  Q 138.65 213.19 138.56 213.59
  Q 130.46 249.31 121.82 284.98
  C 121.37 286.83 120.67 288.60 120.12 290.42
  Q 119.50 292.00 118.44 291.47
  C 117.69 289.18 117.35 286.55 116.77 284.51
  Q 107.68 252.62 98.11 220.87
  Q 98.09 220.81 96.60 216.72
  Q 95.54 213.81 95.46 210.73
  Z"
/>
<path fill="#148972" d="
  M 336.01 241.57
  Q 335.70 241.64 335.47 241.86
  A 1.04 1.03 51.7 0 0 335.32 243.20
  L 342.15 253.13
  Q 342.65 253.85 343.20 253.16
  L 355.09 238.12
  Q 355.56 237.51 356.19 237.97
  L 360.30 240.92
  A 1.24 1.23 -46.7 0 0 361.81 240.87
  L 365.73 237.66
  A 0.58 0.58 0.0 0 1 366.53 237.72
  Q 375.10 247.09 382.42 255.55
  Q 383.26 256.53 384.59 256.86
  Q 385.05 256.97 385.43 256.67
  A 0.67 0.66 51.5 0 0 385.53 255.74
  Q 378.65 247.11 370.16 237.73
  Q 369.32 236.81 368.69 235.78
  A 0.78 0.76 53.7 0 1 368.83 234.81
  L 390.83 214.86
  Q 391.99 213.81 391.79 215.35
  Q 391.67 216.31 391.66 217.19
  Q 391.48 238.59 391.59 258.36
  A 0.27 0.27 0.0 0 1 391.32 258.64
  L 328.71 258.66
  Q 328.26 258.66 328.26 258.21
  L 328.33 213.99
  A 0.43 0.43 0.0 0 1 329.05 213.67
  L 353.46 235.31
  A 0.55 0.54 39.8 0 1 353.53 236.05
  L 343.21 249.21
  A 0.51 0.50 47.9 0 1 342.38 249.16
  Q 340.00 245.32 336.93 241.86
  A 0.92 0.92 0.0 0 0 336.01 241.57
  Z"
/>
<path fill="#0a111b" d="
  M 54.77 219.12
  Q 56.46 259.92 58.60 300.75
  Q 58.79 304.48 57.43 308.03
  L 56.77 306.34
  Q 56.55 305.78 56.12 306.21
  Q 55.71 306.62 55.51 307.28
  Q 55.44 306.62 54.77 306.85
  Q 44.45 310.36 33.50 309.37
  Q 28.37 308.91 22.04 308.58
  Q 21.21 307.89 18.27 307.31
  Q 18.73 305.38 18.93 303.45
  Q 19.13 301.57 19.50 299.59
  Q 21.29 290.01 23.07 282.49
  Q 26.34 268.70 28.98 254.24
  Q 30.99 243.24 36.21 233.40
  Q 42.25 222.00 54.77 219.12
  Z"
/>
<path fill="#0a111b" d="
  M 169.02 220.49
  L 213.98 253.94
  L 191.54 286.54
  Q 191.16 286.65 190.86 286.67
  Q 190.57 286.69 190.26 286.47
  Q 181.55 280.41 172.52 274.83
  Q 172.61 274.38 172.44 273.89
  Q 172.29 273.42 172.32 272.92
  Q 172.68 266.77 172.11 260.03
  Q 170.48 240.72 167.81 221.38
  Q 167.75 220.93 168.10 220.63
  Q 168.50 220.29 169.02 220.49
  Z"
/>
<path fill="#f19c4e" d="
  M 55.51 307.28
  L 53.05 326.08
  Q 44.70 324.67 37.22 319.54
  Q 27.35 312.79 22.04 308.58
  Q 28.37 308.91 33.50 309.37
  Q 44.45 310.36 54.77 306.85
  Q 55.44 306.62 55.51 307.28
  Z"
/>
<path fill="#f9b76b" d="
  M 18.27 307.31
  Q 21.21 307.89 22.04 308.58
  Q 27.35 312.79 37.22 319.54
  Q 44.70 324.67 53.05 326.08
  C 50.62 342.52 51.97 357.03 55.28 373.24
  C 55.22 375.87 55.38 378.31 54.92 380.92
  Q 51.32 401.48 47.74 422.10
  A 1.29 1.28 12.3 0 0 48.68 423.56
  L 55.09 425.28
  Q 55.74 425.45 55.70 426.12
  L 55.16 435.89
  Q 49.40 440.62 44.25 436.20
  Q 41.51 433.86 40.28 428.48
  Q 37.97 418.40 34.57 408.64
  Q 30.86 398.00 26.49 386.30
  Q 19.77 368.30 18.12 349.13
  Q 16.93 335.16 18.27 307.31
  Z"
/>
<path fill="#f9b76b" d="
  M 429.45 315.37
  L 391.77 314.93
  Q 391.87 312.75 392.99 312.75
  Q 409.38 312.65 425.75 312.55
  Q 426.46 312.55 428.68 312.80
  Q 429.20 312.86 429.35 313.35
  Q 429.62 314.22 429.45 315.37
  Z"
/>
<path fill="#725623" d="
  M 391.77 314.93
  L 429.45 315.37
  Q 432.16 316.18 433.90 317.77
  L 387.85 317.81
  Q 386.66 317.81 386.60 319.00
  L 386.36 323.79
  A 1.21 1.20 -88.9 0 0 387.57 325.06
  L 435.06 324.74
  L 436.64 324.20
  Q 437.11 324.03 437.14 323.53
  L 437.29 320.53
  L 437.75 323.86
  Q 437.81 326.81 434.75 327.12
  Q 430.74 327.51 426.67 327.36
  Q 409.03 326.68 391.38 327.46
  Q 390.22 327.51 389.15 327.30
  C 387.03 326.89 383.86 327.84 384.13 324.32
  A 0.94 0.94 0.0 0 0 383.19 323.31
  L 207.83 323.18
  L 206.77 322.14
  L 382.54 322.61
  Q 384.57 322.62 384.75 320.60
  Q 385.14 316.35 389.25 316.66
  Q 391.43 316.83 391.77 314.93
  Z"
/>
<path fill="#ffffff" d="
  M 433.90 317.77
  Q 435.42 321.27 435.06 324.74
  L 387.57 325.06
  A 1.21 1.20 -88.9 0 1 386.36 323.79
  L 386.60 319.00
  Q 386.66 317.81 387.85 317.81
  L 433.90 317.77
  Z"
/>
<path fill="#de720c" d="
  M 171.61 322.27
  L 206.77 322.14
  L 207.83 323.18
  Q 207.17 323.23 206.82 323.57
  Q 206.55 323.84 206.55 324.50
  Q 206.58 331.64 206.60 338.76
  Q 206.61 339.16 206.28 339.85
  L 171.65 340.05
  L 171.61 322.27
  Z"
/>
<path fill="#9b350d" d="
  M 437.75 323.86
  L 458.98 323.95
  Q 460.29 324.57 460.75 324.52
  Q 464.26 324.16 467.77 324.23
  A 1.48 1.47 88.9 0 1 469.21 325.62
  Q 469.50 330.89 469.27 336.74
  C 469.13 340.10 465.44 340.83 462.75 340.93
  Q 458.97 341.06 454.80 340.00
  Q 415.07 339.17 374.75 339.75
  Q 364.32 339.89 354.74 339.82
  Q 318.37 339.53 282.00 339.87
  Q 271.67 339.97 261.99 339.92
  Q 234.14 339.78 206.28 339.85
  Q 206.61 339.16 206.60 338.76
  Q 206.58 331.64 206.55 324.50
  Q 206.55 323.84 206.82 323.57
  Q 207.17 323.23 207.83 323.18
  L 383.19 323.31
  A 0.94 0.94 0.0 0 1 384.13 324.32
  C 383.86 327.84 387.03 326.89 389.15 327.30
  Q 390.22 327.51 391.38 327.46
  Q 409.03 326.68 426.67 327.36
  Q 430.74 327.51 434.75 327.12
  Q 437.81 326.81 437.75 323.86
  Z"
/>
<path fill="#681b08" d="
  M 454.80 340.00
  L 454.35 350.74
  L 171.35 350.84
  L 171.65 340.05
  L 206.28 339.85
  Q 234.14 339.78 261.99 339.92
  Q 271.67 339.97 282.00 339.87
  Q 318.37 339.53 354.74 339.82
  Q 364.32 339.89 374.75 339.75
  Q 415.07 339.17 454.80 340.00
  Z"
/>
<path fill="#b7391c" d="
  M 171.35 350.84
  L 454.35 350.74
  L 454.36 363.40
  A 1.19 1.19 0.0 0 1 453.14 364.60
  Q 444.38 364.36 435.25 364.35
  Q 309.63 364.31 184.00 364.56
  Q 177.87 364.57 171.89 365.12
  L 171.35 350.84
  Z"
/>
<path fill="#0a111b" d="
  M 56.32 374.52
  L 57.17 370.50
  Q 74.34 371.92 91.22 373.82
  Q 93.19 374.04 93.65 374.66
  Q 94.47 375.78 93.82 377.62
  Q 93.49 378.53 92.53 378.40
  Q 77.77 376.41 62.19 374.85
  Q 61.73 374.80 59.39 374.13
  Q 57.69 373.65 56.32 374.52
  Z"
/>
<rect fill="#0a111b" x="-15.27" y="-1.53" transform="translate(156.89,375.52) rotate(-7.6)" width="30.54" height="3.06" rx="1.32"/>
</svg>
