<?xml version="1.0" encoding="UTF-8" standalone="no"?>
<!DOCTYPE svg PUBLIC "-//W3C//DTD SVG 1.1//EN" "http://www.w3.org/Graphics/SVG/1.1/DTD/svg11.dtd">
<svg xmlns="http://www.w3.org/2000/svg" version="1.1" viewBox="0.00 0.00 384.00 437.00">
<path fill="#ffffff" d="
  M 0.00 0.00
  L 384.00 0.00
  L 384.00 30.46
  Q 378.45 33.80 370.01 37.07
  Q 348.61 45.36 329.19 47.24
  Q 309.96 49.10 291.74 48.36
  Q 280.14 47.88 269.62 47.01
  Q 254.90 45.78 242.46 45.70
  Q 230.72 45.63 225.07 47.25
  C 216.78 49.62 208.63 52.92 200.10 55.26
  C 184.72 59.49 168.88 63.80 152.83 63.56
  C 141.43 63.38 131.16 61.56 120.21 58.59
  Q 104.52 54.35 92.51 51.76
  Q 78.11 48.65 65.32 50.54
  Q 54.35 52.16 44.00 55.97
  Q 26.78 62.29 6.57 73.36
  Q 3.89 74.82 1.08 75.96
  Q 0.64 76.14 0.38 75.74
  L 0.00 75.12
  L 0.00 0.00
  Z"
/>
</svg>
