<?xml version="1.0" encoding="UTF-8" standalone="no"?>
<!DOCTYPE svg PUBLIC "-//W3C//DTD SVG 1.1//EN" "http://www.w3.org/Graphics/SVG/1.1/DTD/svg11.dtd">
<svg xmlns="http://www.w3.org/2000/svg" version="1.1" viewBox="0.00 0.00 640.00 384.00">
<path fill="#ffffff" d="
  M 44.87 0.00
  L 640.00 0.00
  L 640.00 5.77
  Q 629.88 5.84 619.75 5.90
  C 617.07 5.91 614.37 6.80 611.61 6.77
  Q 591.25 6.56 570.78 9.07
  Q 558.51 10.58 548.11 13.54
  C 541.39 15.46 535.10 18.92 528.66 21.64
  C 519.24 25.62 510.04 33.07 500.89 38.03
  C 491.95 42.88 480.90 43.50 471.47 39.15
  Q 462.38 34.96 449.17 31.29
  C 430.36 26.07 411.72 23.84 393.11 30.43
  C 384.22 33.57 375.79 37.60 367.45 42.11
  Q 354.05 49.35 338.92 57.04
  Q 308.78 72.34 275.28 73.23
  Q 256.90 73.73 238.93 72.27
  Q 222.80 70.96 212.72 70.80
  Q 208.23 70.73 202.98 71.33
  Q 198.09 71.88 193.70 73.38
  Q 189.29 74.89 184.58 76.51
  C 178.12 78.73 171.29 80.55 164.79 82.29
  Q 155.20 84.87 144.22 86.11
  C 131.55 87.55 118.24 85.74 105.00 82.13
  Q 93.70 79.05 82.57 76.51
  Q 68.20 73.23 55.45 75.46
  C 43.13 77.63 31.52 82.20 19.96 87.91
  Q 10.78 92.45 1.02 97.58
  Q 0.61 97.79 0.34 97.41
  L 0.00 96.93
  L 0.00 0.29
  L 44.87 0.00
  Z"
/>
</svg>
