<?xml version="1.0" encoding="UTF-8" standalone="no"?>
<!DOCTYPE svg PUBLIC "-//W3C//DTD SVG 1.1//EN" "http://www.w3.org/Graphics/SVG/1.1/DTD/svg11.dtd">
<svg xmlns="http://www.w3.org/2000/svg" version="1.1" viewBox="0.00 0.00 128.00 128.00">
<g stroke-width="2.00" fill="none" stroke-linecap="butt">
<path stroke="#5fc6de" vector-effect="non-scaling-stroke" d="
  M 69.16 11.41
  L 69.23 14.45"
/>
<path stroke="#598994" vector-effect="non-scaling-stroke" d="
  M 69.23 14.45
  Q 65.15 20.62 59.54 15.24"
/>
<path stroke="#6ccde3" vector-effect="non-scaling-stroke" d="
  M 59.54 15.24
  L 59.24 11.17"
/>
<path stroke="#3f7e93" vector-effect="non-scaling-stroke" d="
  M 59.54 15.24
  C 44.12 16.69 30.75 24.62 20.99 36.72
  Q 12.45 47.31 10.97 60.27"
/>
<path stroke="#a8c78d" vector-effect="non-scaling-stroke" d="
  M 10.97 60.27
  L 7.15 60.13"
/>
<path stroke="#3f7e93" vector-effect="non-scaling-stroke" d="
  M 14.56 39.66
  Q 18.65 33.38 24.02 28.04"
/>
<path stroke="#906f35" vector-effect="non-scaling-stroke" d="
  M 121.39 60.24
  Q 116.49 59.21 114.64 63.21"
/>
<path stroke="#222d36" vector-effect="non-scaling-stroke" d="
  M 114.64 63.21
  Q 112.72 62.00 112.64 60.99
  Q 112.48 58.90 112.16 57.08
  Q 111.50 53.20 107.49 46.00
  Q 107.36 45.75 107.11 45.88
  L 106.87 46.01
  Q 106.61 46.15 106.73 46.41
  Q 110.41 54.98 110.69 60.52
  Q 110.97 66.20 110.47 74.02
  Q 110.29 76.82 109.37 79.22
  A 1.05 1.05 0.0 0 1 107.93 79.79
  Q 103.65 77.73 106.20 73.61
  Q 106.46 73.19 106.45 72.69
  Q 106.23 62.09 102.38 52.97
  Q 102.30 52.77 102.09 52.85
  L 101.83 52.95
  Q 101.73 52.98 101.76 53.08
  Q 102.28 55.12 103.03 57.29
  C 104.85 62.52 103.94 70.78 102.74 75.49
  Q 102.00 78.35 102.01 79.45"
/>
<path stroke="#949ba0" vector-effect="non-scaling-stroke" d="
  M 102.01 79.45
  Q 92.51 103.36 66.24 105.95"
/>
<path stroke="#598994" vector-effect="non-scaling-stroke" d="
  M 66.24 105.95
  L 61.39 105.91"
/>
<path stroke="#949ba0" vector-effect="non-scaling-stroke" d="
  M 61.39 105.91
  Q 40.92 103.09 29.67 86.07
  Q 23.00 75.99 23.59 63.56"
/>
<path stroke="#222d36" vector-effect="non-scaling-stroke" d="
  M 23.59 63.56
  L 23.81 65.33
  Q 23.82 65.43 23.87 65.33
  Q 24.25 64.49 24.87 64.00
  Q 25.20 63.74 25.14 63.32
  Q 24.85 61.20 25.82 59.14
  Q 26.35 58.02 26.77 56.90
  Q 27.92 53.81 29.40 50.72
  Q 29.98 49.53 30.84 48.45
  Q 31.69 47.38 32.31 46.23
  Q 33.44 44.12 35.17 42.11
  C 37.13 39.85 39.79 38.21 42.22 36.38
  Q 44.32 34.80 46.45 33.92
  Q 49.26 32.77 52.29 31.51
  Q 54.98 30.40 57.67 30.25
  Q 62.68 29.98 67.22 30.44
  A 0.59 0.58 -13.5 0 1 67.64 30.69
  Q 67.84 30.98 68.16 30.94
  C 69.68 30.73 71.04 30.84 72.51 31.34
  Q 74.70 32.09 76.78 32.53
  Q 76.99 32.57 77.16 32.70
  Q 77.27 32.79 77.29 32.93
  Q 77.34 33.35 77.75 33.41
  Q 82.44 34.12 86.04 36.77
  Q 88.83 38.82 91.35 40.97
  Q 92.99 42.37 94.68 44.24
  Q 96.15 45.85 98.23 47.21
  Q 98.78 47.57 99.11 47.00
  Q 100.80 44.16 104.15 42.07
  Q 104.60 41.79 104.33 41.34
  Q 103.18 39.39 101.73 40.14"
/>
<path stroke="#949ba0" vector-effect="non-scaling-stroke" d="
  M 101.73 40.14
  Q 85.62 20.89 62.44 21.65
  C 52.13 21.99 41.95 25.77 33.95 32.09
  Q 19.86 43.20 18.02 61.43
  C 16.26 78.84 23.98 92.93 37.26 103.62"
/>
<path stroke="#222d36" vector-effect="non-scaling-stroke" d="
  M 37.26 103.62
  Q 36.52 103.82 36.50 104.86
  Q 36.49 105.36 36.83 105.72
  L 38.06 107.05
  Q 38.43 107.46 38.96 107.62
  Q 39.80 107.87 40.52 108.44
  Q 41.24 109.01 42.17 109.46
  Q 44.50 110.58 46.71 111.89
  Q 48.06 112.68 49.55 112.93
  Q 50.97 113.16 52.37 113.56
  Q 54.68 114.24 57.08 114.80
  Q 58.51 115.14 59.70 115.06
  Q 60.99 114.96 61.73 115.87
  Q 62.12 116.35 62.73 116.47
  L 69.21 117.70
  Q 69.64 117.78 69.83 118.16
  Q 70.16 118.82 70.82 118.62
  Q 72.50 118.13 74.33 117.94
  Q 75.88 117.78 77.56 117.23
  Q 79.80 116.49 82.20 116.59"
/>
<path stroke="#32768e" vector-effect="non-scaling-stroke" d="
  M 82.20 116.59
  C 64.81 122.81 45.76 119.32 31.41 108.02
  Q 29.79 106.74 26.06 103.00
  Q 23.43 100.35 20.63 98.04"
/>
<path stroke="#598994" vector-effect="non-scaling-stroke" d="
  M 20.63 98.04
  Q 22.36 93.25 16.80 91.35"
/>
<path stroke="#3f7e93" vector-effect="non-scaling-stroke" d="
  M 16.80 91.35
  Q 12.99 84.11 11.18 76.50"
/>
<path stroke="#32768e" vector-effect="non-scaling-stroke" d="
  M 11.18 76.50
  Q 11.07 76.16 11.11 76.11"
/>
<path stroke="#906f35" vector-effect="non-scaling-stroke" d="
  M 11.11 76.11
  Q 11.53 73.77 10.95 72.03
  A 0.74 0.73 82.2 0 0 10.30 71.53
  L 7.29 71.32"
/>
<path stroke="#96823e" vector-effect="non-scaling-stroke" d="
  M 6.76 69.68
  C 13.06 71.27 16.64 63.87 10.97 60.27"
/>
<path stroke="#45bbdd" vector-effect="non-scaling-stroke" d="
  M 69.46 11.26
  Q 70.51 13.35 69.75 14.46"
/>
<path stroke="#32768e" vector-effect="non-scaling-stroke" d="
  M 69.75 14.46
  Q 69.43 14.36 69.23 14.45"
/>
<path stroke="#3f7e93" vector-effect="non-scaling-stroke" d="
  M 121.13 59.31
  Q 119.78 60.40 118.01 59.70
  Q 117.49 59.50 117.41 58.94
  Q 115.72 46.72 107.07 36.17
  Q 92.88 18.85 70.92 15.24
  Q 70.58 15.19 70.30 14.97
  Q 69.98 14.72 69.75 14.46"
/>
<path stroke="#6ccde3" vector-effect="non-scaling-stroke" d="
  M 16.80 91.35
  L 13.48 92.95"
/>
<path stroke="#8a8e92" vector-effect="non-scaling-stroke" d="
  M 101.73 40.14
  Q 102.76 42.04 97.89 45.05
  Q 97.33 45.39 96.91 44.88
  C 76.45 19.13 38.66 23.61 25.85 53.86
  Q 24.11 57.95 23.59 63.56"
/>
<path stroke="#c1eaf0" vector-effect="non-scaling-stroke" d="
  M 61.39 105.91
  L 61.08 112.46"
/>
<path stroke="#8a8e92" vector-effect="non-scaling-stroke" d="
  M 61.08 112.46
  Q 47.92 111.26 37.26 103.62"
/>
<path stroke="#45bbdd" vector-effect="non-scaling-stroke" d="
  M 11.18 76.50
  L 7.71 76.75"
/>
<path stroke="#f8d191" vector-effect="non-scaling-stroke" d="
  M 89.36 105.88
  Q 88.06 102.52 84.53 103.72
  C 83.01 104.24 80.62 105.51 81.55 107.45
  Q 81.99 108.36 83.17 109.17"
/>
<path stroke="#c1eaf0" vector-effect="non-scaling-stroke" d="
  M 65.94 112.56
  Q 64.72 107.88 66.24 105.95"
/>
<path stroke="#856326" vector-effect="non-scaling-stroke" d="
  M 114.64 63.21
  Q 113.43 70.75 121.51 69.75"
/>
<path stroke="#286a80" vector-effect="non-scaling-stroke" d="
  M 121.06 72.22
  L 117.87 71.59
  Q 117.35 71.49 117.30 72.03
  C 115.60 92.88 101.68 109.70 82.20 116.59"
/>
<path stroke="#4f7c86" vector-effect="non-scaling-stroke" d="
  M 61.08 112.46
  L 65.94 112.56"
/>
<path stroke="#8a8e92" vector-effect="non-scaling-stroke" d="
  M 65.94 112.56
  Q 74.78 112.51 83.17 109.17"
/>
<path stroke="#856326" vector-effect="non-scaling-stroke" d="
  M 83.17 109.17
  L 89.36 105.88"
/>
<path stroke="#8a8e92" vector-effect="non-scaling-stroke" d="
  M 89.36 105.88
  Q 102.72 97.26 108.79 82.27
  A 0.61 0.61 0.0 0 0 108.41 81.46
  L 102.01 79.45"
/>
<path stroke="#96ac7f" vector-effect="non-scaling-stroke" d="
  M 11.11 76.11
  Q 9.70 76.63 7.58 76.26"
/>
<path stroke="#5fc6de" vector-effect="non-scaling-stroke" d="
  M 18.17 99.91
  Q 20.33 98.92 20.63 98.04"
/>
<path stroke="#222d36" vector-effect="non-scaling-stroke" d="
  M 65.44 82.57
  Q 64.38 82.55 64.33 82.57
  Q 61.95 83.79 64.51 84.53
  Q 66.78 85.19 68.88 82.83
  C 69.75 81.86 69.78 80.44 69.63 79.23
  Q 68.80 72.60 69.35 66.47
  Q 69.44 65.38 68.72 64.65
  Q 68.28 64.22 68.36 63.61
  Q 68.41 63.26 68.33 62.94
  Q 68.19 62.38 68.77 62.38
  L 73.64 62.36
  Q 74.18 62.36 74.57 61.97
  Q 77.22 59.32 74.83 57.60"
/>
<path stroke="#949ba0" vector-effect="non-scaling-stroke" d="
  M 74.83 57.60
  Q 73.46 56.67 71.00 56.67
  Q 64.08 56.66 57.22 56.76
  Q 55.50 56.79 55.12 58.46
  Q 54.96 59.19 55.62 59.98
  A 1.24 1.22 -18.7 0 0 56.56 60.44
  L 62.01 60.51
  A 0.84 0.84 0.0 0 1 62.83 61.36
  Q 62.70 70.72 62.77 80.27
  C 62.78 81.77 63.88 82.76 65.44 82.57"
/>
<path stroke="#8a8e92" vector-effect="non-scaling-stroke" d="
  M 74.83 57.60
  Q 75.04 60.32 73.01 60.46
  Q 70.19 60.65 67.75 60.58
  A 0.64 0.64 0.0 0 0 67.09 61.24
  Q 67.32 70.78 67.18 80.50
  Q 67.16 82.02 65.44 82.57"
/>
<path stroke="#222d36" vector-effect="non-scaling-stroke" d="
  M 80.44 67.64
  Q 79.14 67.80 80.97 69.58
  Q 84.15 72.68 89.87 72.40"
/>
<path stroke="#949ba0" vector-effect="non-scaling-stroke" d="
  M 89.87 72.40
  Q 92.33 74.83 89.72 77.00
  C 88.09 78.36 85.55 77.87 83.60 76.78
  Q 82.06 75.91 80.44 75.32"
/>
<path stroke="#222d36" vector-effect="non-scaling-stroke" d="
  M 80.44 75.32
  Q 76.69 73.87 77.37 78.08
  Q 77.68 79.99 78.78 80.99
  Q 80.39 82.45 81.88 83.18
  Q 83.16 83.81 85.17 83.78
  Q 86.79 83.75 88.48 83.77
  Q 91.46 83.79 93.87 82.04
  Q 94.38 81.67 94.61 81.11
  C 94.98 80.19 95.94 79.80 96.40 78.87
  Q 97.73 76.14 96.78 73.48
  Q 96.02 71.35 95.02 69.80
  Q 93.55 67.51 90.89 67.70"
/>
<path stroke="#949ba0" vector-effect="non-scaling-stroke" d="
  M 90.89 67.70
  Q 85.97 66.76 83.84 64.20"
/>
<path stroke="#222d36" vector-effect="non-scaling-stroke" d="
  M 83.84 64.20
  Q 86.49 60.52 90.12 62.39
  Q 92.46 63.60 94.51 63.09
  A 0.88 0.87 -88.7 0 0 95.14 62.48
  Q 95.95 59.62 94.15 59.55"
/>
<path stroke="#949ba0" vector-effect="non-scaling-stroke" d="
  M 94.15 59.55
  Q 90.86 55.46 85.62 56.62
  Q 77.04 58.54 80.44 67.64"
/>
<path stroke="#8a8e92" vector-effect="non-scaling-stroke" d="
  M 94.15 59.55
  Q 94.41 60.78 93.92 61.45
  Q 93.28 62.32 92.25 61.97
  C 89.63 61.07 87.88 59.35 84.93 61.13
  Q 83.71 61.88 83.84 64.20"
/>
<path stroke="#8a8e92" vector-effect="non-scaling-stroke" d="
  M 90.89 67.70
  Q 95.61 70.47 95.27 74.84
  C 94.61 83.14 82.44 83.82 78.59 78.40
  Q 77.44 76.78 80.44 75.32"
/>
<path stroke="#8a8e92" vector-effect="non-scaling-stroke" d="
  M 89.87 72.40
  L 80.44 67.64"
/>
<path stroke="#949ba0" vector-effect="non-scaling-stroke" d="
  M 41.32 74.72
  L 47.67 74.72
  A 1.06 1.05 79.3 0 1 48.67 75.41
  L 50.81 81.31
  Q 51.43 83.00 53.17 82.53
  L 53.52 82.44
  Q 55.73 81.84 54.92 79.69
  Q 51.67 71.04 47.89 60.96
  C 46.62 57.58 42.36 57.74 41.13 61.02
  Q 37.51 70.65 34.01 80.03
  Q 33.37 81.74 35.09 82.38
  L 35.52 82.54
  Q 37.55 83.29 38.27 81.24
  L 40.29 75.45
  Q 40.55 74.72 41.32 74.72"
/>
<path stroke="#949ba0" vector-effect="non-scaling-stroke" d="
  M 41.67 71.22
  A 0.41 0.41 0.0 0 0 42.05 71.77
  L 46.91 71.82
  A 0.41 0.41 0.0 0 0 47.30 71.28
  L 44.95 64.08
  A 0.41 0.41 0.0 0 0 44.17 64.08
  L 41.67 71.22"
/>
</g>
<path fill="#86d8e4" d="
  M 69.16 11.41
  L 69.23 14.45
  Q 65.15 20.62 59.54 15.24
  L 59.24 11.17
  C 61.66 6.55 66.90 6.51 69.16 11.41
  Z"
/>
<path fill="#51c2e2" d="
  M 59.24 11.17
  L 59.54 15.24
  C 44.12 16.69 30.75 24.62 20.99 36.72
  Q 12.45 47.31 10.97 60.27
  L 7.15 60.13
  Q 8.72 49.09 14.56 39.66
  Q 18.65 33.38 24.02 28.04
  Q 38.74 13.93 59.24 11.17
  Z"
/>
<path fill="#38b3d8" d="
  M 69.16 11.41
  Q 69.31 11.33 69.46 11.26
  Q 70.51 13.35 69.75 14.46
  Q 69.43 14.36 69.23 14.45
  L 69.16 11.41
  Z"
/>
<path fill="#51c2e2" d="
  M 69.46 11.26
  C 94.71 14.17 117.29 33.93 121.13 59.31
  Q 119.78 60.40 118.01 59.70
  Q 117.49 59.50 117.41 58.94
  Q 115.72 46.72 107.07 36.17
  Q 92.88 18.85 70.92 15.24
  Q 70.58 15.19 70.30 14.97
  Q 69.98 14.72 69.75 14.46
  Q 70.51 13.35 69.46 11.26
  Z"
/>
<path fill="#2c3944" d="
  M 69.23 14.45
  Q 69.43 14.36 69.75 14.46
  Q 69.98 14.72 70.30 14.97
  Q 70.58 15.19 70.92 15.24
  Q 92.88 18.85 107.07 36.17
  Q 115.72 46.72 117.41 58.94
  Q 117.49 59.50 118.01 59.70
  Q 119.78 60.40 121.13 59.31
  L 121.39 60.24
  Q 116.49 59.21 114.64 63.21
  Q 112.72 62.00 112.64 60.99
  Q 112.48 58.90 112.16 57.08
  Q 111.50 53.20 107.49 46.00
  Q 107.36 45.75 107.11 45.88
  L 106.87 46.01
  Q 106.61 46.15 106.73 46.41
  Q 110.41 54.98 110.69 60.52
  Q 110.97 66.20 110.47 74.02
  Q 110.29 76.82 109.37 79.22
  A 1.05 1.05 0.0 0 1 107.93 79.79
  Q 103.65 77.73 106.20 73.61
  Q 106.46 73.19 106.45 72.69
  Q 106.23 62.09 102.38 52.97
  Q 102.30 52.77 102.09 52.85
  L 101.83 52.95
  Q 101.73 52.98 101.76 53.08
  Q 102.28 55.12 103.03 57.29
  C 104.85 62.52 103.94 70.78 102.74 75.49
  Q 102.00 78.35 102.01 79.45
  Q 92.51 103.36 66.24 105.95
  L 61.39 105.91
  Q 40.92 103.09 29.67 86.07
  Q 23.00 75.99 23.59 63.56
  L 23.81 65.33
  Q 23.82 65.43 23.87 65.33
  Q 24.25 64.49 24.87 64.00
  Q 25.20 63.74 25.14 63.32
  Q 24.85 61.20 25.82 59.14
  Q 26.35 58.02 26.77 56.90
  Q 27.92 53.81 29.40 50.72
  Q 29.98 49.53 30.84 48.45
  Q 31.69 47.38 32.31 46.23
  Q 33.44 44.12 35.17 42.11
  C 37.13 39.85 39.79 38.21 42.22 36.38
  Q 44.32 34.80 46.45 33.92
  Q 49.26 32.77 52.29 31.51
  Q 54.98 30.40 57.67 30.25
  Q 62.68 29.98 67.22 30.44
  A 0.59 0.58 -13.5 0 1 67.64 30.69
  Q 67.84 30.98 68.16 30.94
  C 69.68 30.73 71.04 30.84 72.51 31.34
  Q 74.70 32.09 76.78 32.53
  Q 76.99 32.57 77.16 32.70
  Q 77.27 32.79 77.29 32.93
  Q 77.34 33.35 77.75 33.41
  Q 82.44 34.12 86.04 36.77
  Q 88.83 38.82 91.35 40.97
  Q 92.99 42.37 94.68 44.24
  Q 96.15 45.85 98.23 47.21
  Q 98.78 47.57 99.11 47.00
  Q 100.80 44.16 104.15 42.07
  Q 104.60 41.79 104.33 41.34
  Q 103.18 39.39 101.73 40.14
  Q 85.62 20.89 62.44 21.65
  C 52.13 21.99 41.95 25.77 33.95 32.09
  Q 19.86 43.20 18.02 61.43
  C 16.26 78.84 23.98 92.93 37.26 103.62
  Q 36.52 103.82 36.50 104.86
  Q 36.49 105.36 36.83 105.72
  L 38.06 107.05
  Q 38.43 107.46 38.96 107.62
  Q 39.80 107.87 40.52 108.44
  Q 41.24 109.01 42.17 109.46
  Q 44.50 110.58 46.71 111.89
  Q 48.06 112.68 49.55 112.93
  Q 50.97 113.16 52.37 113.56
  Q 54.68 114.24 57.08 114.80
  Q 58.51 115.14 59.70 115.06
  Q 60.99 114.96 61.73 115.87
  Q 62.12 116.35 62.73 116.47
  L 69.21 117.70
  Q 69.64 117.78 69.83 118.16
  Q 70.16 118.82 70.82 118.62
  Q 72.50 118.13 74.33 117.94
  Q 75.88 117.78 77.56 117.23
  Q 79.80 116.49 82.20 116.59
  C 64.81 122.81 45.76 119.32 31.41 108.02
  Q 29.79 106.74 26.06 103.00
  Q 23.43 100.35 20.63 98.04
  Q 22.36 93.25 16.80 91.35
  Q 12.99 84.11 11.18 76.50
  Q 11.07 76.16 11.11 76.11
  Q 11.53 73.77 10.95 72.03
  A 0.74 0.73 82.2 0 0 10.30 71.53
  L 7.29 71.32
  L 6.76 69.68
  C 13.06 71.27 16.64 63.87 10.97 60.27
  Q 12.45 47.31 20.99 36.72
  C 30.75 24.62 44.12 16.69 59.54 15.24
  Q 65.15 20.62 69.23 14.45
  Z
  M 65.44 82.57
  Q 64.38 82.55 64.33 82.57
  Q 61.95 83.79 64.51 84.53
  Q 66.78 85.19 68.88 82.83
  C 69.75 81.86 69.78 80.44 69.63 79.23
  Q 68.80 72.60 69.35 66.47
  Q 69.44 65.38 68.72 64.65
  Q 68.28 64.22 68.36 63.61
  Q 68.41 63.26 68.33 62.94
  Q 68.19 62.38 68.77 62.38
  L 73.64 62.36
  Q 74.18 62.36 74.57 61.97
  Q 77.22 59.32 74.83 57.60
  Q 73.46 56.67 71.00 56.67
  Q 64.08 56.66 57.22 56.76
  Q 55.50 56.79 55.12 58.46
  Q 54.96 59.19 55.62 59.98
  A 1.24 1.22 -18.7 0 0 56.56 60.44
  L 62.01 60.51
  A 0.84 0.84 0.0 0 1 62.83 61.36
  Q 62.70 70.72 62.77 80.27
  C 62.78 81.77 63.88 82.76 65.44 82.57
  Z
  M 80.44 67.64
  Q 79.14 67.80 80.97 69.58
  Q 84.15 72.68 89.87 72.40
  Q 92.33 74.83 89.72 77.00
  C 88.09 78.36 85.55 77.87 83.60 76.78
  Q 82.06 75.91 80.44 75.32
  Q 76.69 73.87 77.37 78.08
  Q 77.68 79.99 78.78 80.99
  Q 80.39 82.45 81.88 83.18
  Q 83.16 83.81 85.17 83.78
  Q 86.79 83.75 88.48 83.77
  Q 91.46 83.79 93.87 82.04
  Q 94.38 81.67 94.61 81.11
  C 94.98 80.19 95.94 79.80 96.40 78.87
  Q 97.73 76.14 96.78 73.48
  Q 96.02 71.35 95.02 69.80
  Q 93.55 67.51 90.89 67.70
  Q 85.97 66.76 83.84 64.20
  Q 86.49 60.52 90.12 62.39
  Q 92.46 63.60 94.51 63.09
  A 0.88 0.87 -88.7 0 0 95.14 62.48
  Q 95.95 59.62 94.15 59.55
  Q 90.86 55.46 85.62 56.62
  Q 77.04 58.54 80.44 67.64
  Z
  M 41.32 74.72
  L 47.67 74.72
  A 1.06 1.05 79.3 0 1 48.67 75.41
  L 50.81 81.31
  Q 51.43 83.00 53.17 82.53
  L 53.52 82.44
  Q 55.73 81.84 54.92 79.69
  Q 51.67 71.04 47.89 60.96
  C 46.62 57.58 42.36 57.74 41.13 61.02
  Q 37.51 70.65 34.01 80.03
  Q 33.37 81.74 35.09 82.38
  L 35.52 82.54
  Q 37.55 83.29 38.27 81.24
  L 40.29 75.45
  Q 40.55 74.72 41.32 74.72
  Z"
/>
<path fill="#2c3944" d="
  M 24.02 28.04
  Q 18.65 33.38 14.56 39.66
  L 14.72 21.82
  A 0.95 0.95 0.0 0 1 15.70 20.88
  Q 16.20 20.90 16.72 21.28
  Q 20.78 24.27 24.02 28.04
  Z"
/>
<path fill="#fcfcfc" d="
  M 101.73 40.14
  Q 102.76 42.04 97.89 45.05
  Q 97.33 45.39 96.91 44.88
  C 76.45 19.13 38.66 23.61 25.85 53.86
  Q 24.11 57.95 23.59 63.56
  Q 23.00 75.99 29.67 86.07
  Q 40.92 103.09 61.39 105.91
  L 61.08 112.46
  Q 47.92 111.26 37.26 103.62
  C 23.98 92.93 16.26 78.84 18.02 61.43
  Q 19.86 43.20 33.95 32.09
  C 41.95 25.77 52.13 21.99 62.44 21.65
  Q 85.62 20.89 101.73 40.14
  Z"
/>
<path fill="#172027" d="
  M 101.73 40.14
  Q 103.18 39.39 104.33 41.34
  Q 104.60 41.79 104.15 42.07
  Q 100.80 44.16 99.11 47.00
  Q 98.78 47.57 98.23 47.21
  Q 96.15 45.85 94.68 44.24
  Q 92.99 42.37 91.35 40.97
  Q 88.83 38.82 86.04 36.77
  Q 82.44 34.12 77.75 33.41
  Q 77.34 33.35 77.29 32.93
  Q 77.27 32.79 77.16 32.70
  Q 76.99 32.57 76.78 32.53
  Q 74.70 32.09 72.51 31.34
  C 71.04 30.84 69.68 30.73 68.16 30.94
  Q 67.84 30.98 67.64 30.69
  A 0.59 0.58 -13.5 0 0 67.22 30.44
  Q 62.68 29.98 57.67 30.25
  Q 54.98 30.40 52.29 31.51
  Q 49.26 32.77 46.45 33.92
  Q 44.32 34.80 42.22 36.38
  C 39.79 38.21 37.13 39.85 35.17 42.11
  Q 33.44 44.12 32.31 46.23
  Q 31.69 47.38 30.84 48.45
  Q 29.98 49.53 29.40 50.72
  Q 27.92 53.81 26.77 56.90
  Q 26.35 58.02 25.82 59.14
  Q 24.85 61.20 25.14 63.32
  Q 25.20 63.74 24.87 64.00
  Q 24.25 64.49 23.87 65.33
  Q 23.82 65.43 23.81 65.33
  L 23.59 63.56
  Q 24.11 57.95 25.85 53.86
  C 38.66 23.61 76.45 19.13 96.91 44.88
  Q 97.33 45.39 97.89 45.05
  Q 102.76 42.04 101.73 40.14
  Z"
/>
<path fill="#172027" d="
  M 114.64 63.21
  Q 113.43 70.75 121.51 69.75
  Q 121.01 70.85 121.06 72.22
  L 117.87 71.59
  Q 117.35 71.49 117.30 72.03
  C 115.60 92.88 101.68 109.70 82.20 116.59
  Q 79.80 116.49 77.56 117.23
  Q 75.88 117.78 74.33 117.94
  Q 72.50 118.13 70.82 118.62
  Q 70.16 118.82 69.83 118.16
  Q 69.64 117.78 69.21 117.70
  L 62.73 116.47
  Q 62.12 116.35 61.73 115.87
  Q 60.99 114.96 59.70 115.06
  Q 58.51 115.14 57.08 114.80
  Q 54.68 114.24 52.37 113.56
  Q 50.97 113.16 49.55 112.93
  Q 48.06 112.68 46.71 111.89
  Q 44.50 110.58 42.17 109.46
  Q 41.24 109.01 40.52 108.44
  Q 39.80 107.87 38.96 107.62
  Q 38.43 107.46 38.06 107.05
  L 36.83 105.72
  Q 36.49 105.36 36.50 104.86
  Q 36.52 103.82 37.26 103.62
  Q 47.92 111.26 61.08 112.46
  L 65.94 112.56
  Q 74.78 112.51 83.17 109.17
  L 89.36 105.88
  Q 102.72 97.26 108.79 82.27
  A 0.61 0.61 0.0 0 0 108.41 81.46
  L 102.01 79.45
  Q 102.00 78.35 102.74 75.49
  C 103.94 70.78 104.85 62.52 103.03 57.29
  Q 102.28 55.12 101.76 53.08
  Q 101.73 52.98 101.83 52.95
  L 102.09 52.85
  Q 102.30 52.77 102.38 52.97
  Q 106.23 62.09 106.45 72.69
  Q 106.46 73.19 106.20 73.61
  Q 103.65 77.73 107.93 79.79
  A 1.05 1.05 0.0 0 0 109.37 79.22
  Q 110.29 76.82 110.47 74.02
  Q 110.97 66.20 110.69 60.52
  Q 110.41 54.98 106.73 46.41
  Q 106.61 46.15 106.87 46.01
  L 107.11 45.88
  Q 107.36 45.75 107.49 46.00
  Q 111.50 53.20 112.16 57.08
  Q 112.48 58.90 112.64 60.99
  Q 112.72 62.00 114.64 63.21
  Z"
/>
<path fill="#fcfcfc" d="
  M 74.83 57.60
  Q 75.04 60.32 73.01 60.46
  Q 70.19 60.65 67.75 60.58
  A 0.64 0.64 0.0 0 0 67.09 61.24
  Q 67.32 70.78 67.18 80.50
  Q 67.16 82.02 65.44 82.57
  C 63.88 82.76 62.78 81.77 62.77 80.27
  Q 62.70 70.72 62.83 61.36
  A 0.84 0.84 0.0 0 0 62.01 60.51
  L 56.56 60.44
  A 1.24 1.22 -18.7 0 1 55.62 59.98
  Q 54.96 59.19 55.12 58.46
  Q 55.50 56.79 57.22 56.76
  Q 64.08 56.66 71.00 56.67
  Q 73.46 56.67 74.83 57.60
  Z"
/>
<path fill="#fcfcfc" d="
  M 94.15 59.55
  Q 94.41 60.78 93.92 61.45
  Q 93.28 62.32 92.25 61.97
  C 89.63 61.07 87.88 59.35 84.93 61.13
  Q 83.71 61.88 83.84 64.20
  Q 85.97 66.76 90.89 67.70
  Q 95.61 70.47 95.27 74.84
  C 94.61 83.14 82.44 83.82 78.59 78.40
  Q 77.44 76.78 80.44 75.32
  Q 82.06 75.91 83.60 76.78
  C 85.55 77.87 88.09 78.36 89.72 77.00
  Q 92.33 74.83 89.87 72.40
  L 80.44 67.64
  Q 77.04 58.54 85.62 56.62
  Q 90.86 55.46 94.15 59.55
  Z"
/>
<path fill="#172027" d="
  M 74.83 57.60
  Q 77.22 59.32 74.57 61.97
  Q 74.18 62.36 73.64 62.36
  L 68.77 62.38
  Q 68.19 62.38 68.33 62.94
  Q 68.41 63.26 68.36 63.61
  Q 68.28 64.22 68.72 64.65
  Q 69.44 65.38 69.35 66.47
  Q 68.80 72.60 69.63 79.23
  C 69.78 80.44 69.75 81.86 68.88 82.83
  Q 66.78 85.19 64.51 84.53
  Q 61.95 83.79 64.33 82.57
  Q 64.38 82.55 65.44 82.57
  Q 67.16 82.02 67.18 80.50
  Q 67.32 70.78 67.09 61.24
  A 0.64 0.64 0.0 0 1 67.75 60.58
  Q 70.19 60.65 73.01 60.46
  Q 75.04 60.32 74.83 57.60
  Z"
/>
<path fill="#fcfcfc" d="
  M 40.29 75.45
  L 38.27 81.24
  Q 37.55 83.29 35.52 82.54
  L 35.09 82.38
  Q 33.37 81.74 34.01 80.03
  Q 37.51 70.65 41.13 61.02
  C 42.36 57.74 46.62 57.58 47.89 60.96
  Q 51.67 71.04 54.92 79.69
  Q 55.73 81.84 53.52 82.44
  L 53.17 82.53
  Q 51.43 83.00 50.81 81.31
  L 48.67 75.41
  A 1.06 1.05 79.3 0 0 47.67 74.72
  L 41.32 74.72
  Q 40.55 74.72 40.29 75.45
  Z
  M 41.67 71.22
  A 0.41 0.41 0.0 0 0 42.05 71.77
  L 46.91 71.82
  A 0.41 0.41 0.0 0 0 47.30 71.28
  L 44.95 64.08
  A 0.41 0.41 0.0 0 0 44.17 64.08
  L 41.67 71.22
  Z"
/>
<path fill="#172027" d="
  M 83.84 64.20
  Q 83.71 61.88 84.93 61.13
  C 87.88 59.35 89.63 61.07 92.25 61.97
  Q 93.28 62.32 93.92 61.45
  Q 94.41 60.78 94.15 59.55
  Q 95.95 59.62 95.14 62.48
  A 0.88 0.87 -88.7 0 1 94.51 63.09
  Q 92.46 63.60 90.12 62.39
  Q 86.49 60.52 83.84 64.20
  Z"
/>
<path fill="#ffcb38" d="
  M 10.97 60.27
  C 16.64 63.87 13.06 71.27 6.76 69.68
  C 2.25 67.17 3.07 62.45 7.15 60.13
  L 10.97 60.27
  Z"
/>
<path fill="#f3a525" d="
  M 121.39 60.24
  Q 127.38 64.97 121.51 69.75
  Q 113.43 70.75 114.64 63.21
  Q 116.49 59.21 121.39 60.24
  Z"
/>
<path fill="#2c3944" d="
  M 41.67 71.22
  L 44.17 64.08
  A 0.41 0.41 0.0 0 1 44.95 64.08
  L 47.30 71.28
  A 0.41 0.41 0.0 0 1 46.91 71.82
  L 42.05 71.77
  A 0.41 0.41 0.0 0 1 41.67 71.22
  Z"
/>
<path fill="#172027" d="
  M 80.44 67.64
  L 89.87 72.40
  Q 84.15 72.68 80.97 69.58
  Q 79.14 67.80 80.44 67.64
  Z"
/>
<path fill="#172027" d="
  M 90.89 67.70
  Q 93.55 67.51 95.02 69.80
  Q 96.02 71.35 96.78 73.48
  Q 97.73 76.14 96.40 78.87
  C 95.94 79.80 94.98 80.19 94.61 81.11
  Q 94.38 81.67 93.87 82.04
  Q 91.46 83.79 88.48 83.77
  Q 86.79 83.75 85.17 83.78
  Q 83.16 83.81 81.88 83.18
  Q 80.39 82.45 78.78 80.99
  Q 77.68 79.99 77.37 78.08
  Q 76.69 73.87 80.44 75.32
  Q 77.44 76.78 78.59 78.40
  C 82.44 83.82 94.61 83.14 95.27 74.84
  Q 95.61 70.47 90.89 67.70
  Z"
/>
<path fill="#f3a525" d="
  M 7.29 71.32
  L 10.30 71.53
  A 0.74 0.73 82.2 0 1 10.95 72.03
  Q 11.53 73.77 11.11 76.11
  Q 9.70 76.63 7.58 76.26
  L 7.29 71.32
  Z"
/>
<path fill="#38b3d8" d="
  M 121.06 72.22
  Q 120.04 85.90 112.53 97.28
  C 97.67 119.78 70.40 129.09 45.11 120.18
  Q 29.03 114.51 18.17 99.91
  Q 20.33 98.92 20.63 98.04
  Q 23.43 100.35 26.06 103.00
  Q 29.79 106.74 31.41 108.02
  C 45.76 119.32 64.81 122.81 82.20 116.59
  C 101.68 109.70 115.60 92.88 117.30 72.03
  Q 117.35 71.49 117.87 71.59
  L 121.06 72.22
  Z"
/>
<path fill="#38b3d8" d="
  M 11.11 76.11
  Q 11.07 76.16 11.18 76.50
  L 7.71 76.75
  Q 7.94 76.86 7.58 76.26
  Q 9.70 76.63 11.11 76.11
  Z"
/>
<path fill="#51c2e2" d="
  M 11.18 76.50
  Q 12.99 84.11 16.80 91.35
  L 13.48 92.95
  Q 10.79 87.94 9.31 83.50
  Q 8.38 80.72 7.71 76.75
  L 11.18 76.50
  Z"
/>
<path fill="#fcfcfc" d="
  M 102.01 79.45
  L 108.41 81.46
  A 0.61 0.61 0.0 0 1 108.79 82.27
  Q 102.72 97.26 89.36 105.88
  Q 88.06 102.52 84.53 103.72
  C 83.01 104.24 80.62 105.51 81.55 107.45
  Q 81.99 108.36 83.17 109.17
  Q 74.78 112.51 65.94 112.56
  Q 64.72 107.88 66.24 105.95
  Q 92.51 103.36 102.01 79.45
  Z"
/>
<path fill="#86d8e4" d="
  M 16.80 91.35
  Q 22.36 93.25 20.63 98.04
  Q 20.33 98.92 18.17 99.91
  C 14.06 101.29 10.67 96.68 13.48 92.95
  L 16.80 91.35
  Z"
/>
<path fill="#f3a525" d="
  M 89.36 105.88
  L 83.17 109.17
  Q 81.99 108.36 81.55 107.45
  C 80.62 105.51 83.01 104.24 84.53 103.72
  Q 88.06 102.52 89.36 105.88
  Z"
/>
<path fill="#86d8e4" d="
  M 61.39 105.91
  L 66.24 105.95
  Q 64.72 107.88 65.94 112.56
  L 61.08 112.46
  L 61.39 105.91
  Z"
/>
</svg>
